<?xml version="1.0" encoding="UTF-8" standalone="no"?>
<!-- Created with Inkscape (http://www.inkscape.org/) -->

<svg
   width="93.5mm"
   height="32.5mm"
   viewBox="0 0 93.5 32.500001"
   version="1.1"
   id="svg1"
   xmlns="http://www.w3.org/2000/svg"
   xmlns:svg="http://www.w3.org/2000/svg">
  <defs
     id="defs1">
    <clipPath
       clipPathUnits="userSpaceOnUse"
       id="clipPath2-2">
      <path
         d="M 0,251.464 H 415.939 V 0 H 0 Z"
         transform="translate(-197.42091,-123.1469)"
         id="path2-4" />
    </clipPath>
  </defs>
  <g
     id="layer1"
     transform="translate(-45.508332,-92.075)">
    <path
       id="path1"
       d="m 0,0 10.542,13.914 28.254,-37.29 h 13.69 L 10.544,31.982 -31.401,-23.376 h 13.69 l 9.443,12.464 H 21.565 L 13.297,0 Z M 69.375,-23.376 H 80.287 V 11.722 H 69.375 Z m -27.21,41.317 h 65.332 V 28.853 H 42.165 Z M -45.078,7.134 c 0.746,1.834 1.161,3.836 1.161,5.934 0,8.704 -7.081,15.786 -15.785,15.786 H -96.337 V 14.403 h 10.912 v 3.538 h 25.723 c 2.691,0 4.873,-2.181 4.873,-4.873 0,-2.691 -2.182,-4.873 -4.873,-4.873 H -96.337 V -2.717 h 45.579 c 2.692,0 4.873,-2.181 4.873,-4.873 0,-2.691 -2.181,-4.873 -4.873,-4.873 l -34.667,-0.001 v 3.538 h -10.912 v -14.45 l 45.579,0.001 c 8.704,0 15.786,7.081 15.786,15.785 0,6.702 -4.201,12.439 -10.106,14.724 m 166.017,54.804 c 7.801,-0.319 15.742,-1.096 22.957,-4.28 5.945,-2.622 11.236,-7.489 12.46,-14.122 0.831,-4.495 0.124,-9.319 -1.49,-13.571 -0.043,-0.112 0.105,-0.197 0.182,-0.107 0.246,0.289 0.489,0.58 0.731,0.872 3.893,4.701 7.567,9.934 9.45,15.8 0.97,3.018 1.458,6.338 0.656,9.452 -1.227,4.767 -5.773,7.156 -10.206,8.409 -1.779,0.503 -3.595,0.865 -5.423,1.126 -8.141,1.162 -16.598,0.692 -24.719,-0.092 -4.721,-0.455 -9.426,-1.081 -14.108,-1.834 -2.943,-0.474 -5.878,-0.995 -8.8,-1.586 -0.129,-0.026 -0.103,-0.216 0.028,-0.21 6.088,0.273 12.192,0.391 18.282,0.143 M 64.473,52.072 c -0.132,-0.012 -0.165,0.177 -0.037,0.209 0.423,0.107 0.847,0.212 1.271,0.315 3.915,0.951 7.862,1.717 11.83,2.409 3.998,0.698 8.039,1.204 12.079,1.588 4.186,0.397 8.387,0.624 12.591,0.679 8.271,0.109 16.591,-0.475 24.671,-2.314 4.64,-1.05 9.213,-2.518 13.376,-4.853 6.251,-3.507 11.237,-9.964 10.589,-17.429 -0.348,-3.998 -2.325,-7.817 -4.673,-10.998 -6.553,-8.886 -16.225,-15.576 -25.358,-21.547 -0.116,-0.075 -0.232,0.091 -0.123,0.174 11.457,8.716 17.591,18.566 15.913,27.839 -3.224,17.812 -34.185,27.519 -72.129,23.928 M 48.858,-39.774 v 2.876 h 3.008 c 1.11,0 1.525,-0.662 1.525,-1.427 0,-0.777 -0.415,-1.449 -1.525,-1.449 z m 5.538,1.449 c 0,1.727 -1.283,2.539 -2.415,2.539 h -4.174 v -8.242 h 1.051 v 3.153 h 2.281 l 2.148,-3.143 h 1.271 l -2.149,3.177 c 1.005,0.186 1.987,0.997 1.987,2.516 m -16.545,-1.449 v 2.876 h 3.008 c 1.109,0 1.525,-0.662 1.525,-1.427 0,-0.777 -0.416,-1.449 -1.525,-1.449 z m 5.538,1.449 c 0,1.727 -1.283,2.539 -2.414,2.539 H 36.8 v -8.242 h 1.051 v 3.153 h 2.28 l 2.149,-3.143 h 1.271 l -2.149,3.177 c 1.005,0.186 1.987,0.997 1.987,2.516 m -15.431,-4.811 c -1.791,0 -3.212,1.438 -3.212,3.235 0,1.797 1.421,3.234 3.212,3.234 1.791,0 3.223,-1.437 3.223,-3.234 0,-1.797 -1.432,-3.235 -3.223,-3.235 m 0,7.547 c -2.311,0 -4.182,-1.935 -4.182,-4.324 0,-2.377 1.871,-4.301 4.182,-4.301 2.322,0 4.193,1.924 4.193,4.301 0,2.389 -1.871,4.324 -4.193,4.324 m -12.731,-5.472 4.389,5.75 v -8.717 h -1.062 v 5.564 l -3.327,-4.405 -3.304,4.405 v -5.564 h -1.074 v 8.717 z m 47.128,-2.075 c -1.79,0 -3.21,1.438 -3.21,3.235 0,1.797 1.42,3.234 3.21,3.234 1.791,0 3.223,-1.437 3.223,-3.234 0,-1.797 -1.432,-3.235 -3.223,-3.235 m 0,7.547 c -2.31,0 -4.181,-1.935 -4.181,-4.324 0,-2.377 1.871,-4.301 4.181,-4.301 2.323,0 4.194,1.924 4.194,4.301 0,2.389 -1.871,4.324 -4.194,4.324 M 2.61,-43.136 c -1.791,0 -3.212,1.438 -3.212,3.235 0,1.797 1.421,3.234 3.212,3.234 1.791,0 3.223,-1.437 3.223,-3.234 0,-1.797 -1.432,-3.235 -3.223,-3.235 m 0,7.547 c -2.31,0 -4.181,-1.935 -4.181,-4.324 0,-2.377 1.871,-4.301 4.181,-4.301 2.323,0 4.194,1.924 4.194,4.301 0,2.389 -1.871,4.324 -4.194,4.324 m 76.637,-0.197 h 1.039 l -3.385,-8.672 -2.321,6.284 -2.322,-6.284 -3.373,8.672 h 1.167 l 2.275,-5.878 2.253,6.353 2.321,-6.387 z m -137.691,0 h 6.839 v -1.008 h -2.888 v -7.234 h -1.063 v 7.234 h -2.888 z m 46.682,0 h 6.839 v -1.008 h -2.888 v -7.234 h -1.063 v 7.234 h -2.888 z m -36.322,0 h 6.838 v -1.008 h -2.888 v -7.234 h -1.062 v 7.234 h -2.888 z m -27.294,-7.129 h -2.715 v 2.48 h 2.749 c 0.67,0 1.479,-0.139 1.479,-1.147 0,-1.113 -0.866,-1.333 -1.513,-1.333 m -2.715,6.017 h 2.079 c 0.624,0 1.571,-0.024 1.571,-1.114 0,-0.916 -0.808,-1.321 -1.34,-1.321 h -2.31 z m 3.87,-2.818 c 0.312,0.267 0.785,0.742 0.785,1.716 0,1.901 -1.443,2.214 -2.564,2.214 h -3.142 v -8.242 h 3.789 c 1.132,0 2.495,0.717 2.495,2.48 0,1.159 -0.728,1.577 -1.363,1.832 m 5.89,3.93 h 5.614 v -1.02 h -4.563 v -2.388 h 3.731 v -1.021 h -3.742 v -2.782 h 4.574 v -1.031 h -5.614 z m -25.474,-5.298 1.559,3.408 1.56,-3.396 z m -2.53,-2.944 h 1.155 l 0.913,1.935 4.043,-0.011 0.913,-1.924 h 1.144 l -4.079,8.671 z m 59.367,8.242 h 5.614 v -1.02 h -4.563 v -2.388 h 3.731 v -1.021 h -3.743 v -2.782 h 4.575 v -1.031 h -5.614 z m 10.94,-3.988 v 2.876 h 3.008 c 1.109,0 1.525,-0.662 1.525,-1.427 0,-0.777 -0.416,-1.449 -1.525,-1.449 z m 5.538,1.449 c 0,1.727 -1.282,2.539 -2.414,2.539 h -4.175 v -8.242 h 1.051 v 3.153 h 2.28 l 2.149,-3.143 h 1.271 l -2.149,3.177 c 1.005,0.186 1.987,0.997 1.987,2.516"
       style="fill:#ffffff;fill-opacity:1;fill-rule:nonzero;stroke:none"
       transform="matrix(0.35277776,0,0,-0.35277776,80.066014,115.75632)"
       clip-path="url(#clipPath2-2)" />
  </g>
</svg>
