<?xml version="1.0" encoding="UTF-8"?>
<!DOCTYPE svg PUBLIC "-//W3C//DTD SVG 1.1//EN" "http://www.w3.org/Graphics/SVG/1.1/DTD/svg11.dtd">
<svg xmlns="http://www.w3.org/2000/svg" version="1.1" width="227px" height="87px" style="shape-rendering:geometricPrecision; text-rendering:geometricPrecision; image-rendering:optimizeQuality; fill-rule:evenodd; clip-rule:evenodd" xmlns:xlink="http://www.w3.org/1999/xlink">
<g><path style="opacity:0.882" fill="#fafafa" d="M 194.5,3.5 C 202.428,3.13233 210.095,4.29899 217.5,7C 221.889,11.4378 222.722,16.6044 220,22.5C 217.72,26.4467 215.053,30.1134 212,33.5C 214.938,18.0842 208.438,9.91756 192.5,9C 185.476,8.83108 178.476,8.33108 171.5,7.5C 179.236,5.7799 186.903,4.44657 194.5,3.5 Z"/></g>
<g><path style="opacity:0.923" fill="#fcfcfc" d="M 164.5,10.5 C 177.767,9.46532 190.434,11.632 202.5,17C 209.506,21.9039 211.339,28.4039 208,36.5C 202.22,44.4489 195.054,50.7822 186.5,55.5C 188.093,52.345 190.593,49.345 194,46.5C 200.703,33.7276 197.203,24.8943 183.5,20C 179.877,18.8443 176.211,17.8443 172.5,17C 162.365,15.6527 152.365,15.1527 142.5,15.5C 143.025,14.8076 143.692,14.3076 144.5,14C 151.289,12.7029 157.956,11.5363 164.5,10.5 Z"/></g>
<g><path style="opacity:0.918" fill="#fdfdfd" d="M 100.5,30.5 C 102.017,30.5106 103.184,31.1772 104,32.5C 114.167,46 124.333,59.5 134.5,73C 130.5,73.6667 126.5,73.6667 122.5,73C 115.66,63.9985 108.66,55.1651 101.5,46.5C 99.5293,48.8082 97.5293,51.1415 95.5,53.5C 98.4465,54.3214 101.447,54.8214 104.5,55C 106.694,57.6947 108.694,60.528 110.5,63.5C 102.5,64.1667 94.5,64.8333 86.5,65.5C 82.8423,73.1767 76.8423,75.6767 68.5,73C 79.3832,58.9564 90.0499,44.7898 100.5,30.5 Z"/></g>
<g><path style="opacity:0.932" fill="#f6f6f6" d="M 18.5,32.5 C 29.505,32.3335 40.505,32.5002 51.5,33C 58.7375,36.1414 61.4042,41.4748 59.5,49C 67.2257,53.8434 69.0591,60.3434 65,68.5C 63.3626,70.8102 61.196,72.3102 58.5,73C 45.1708,73.4999 31.8375,73.6666 18.5,73.5C 18.5,69.5 18.5,65.5 18.5,61.5C 21.8333,61.5 25.1667,61.5 28.5,61.5C 28.5,62.5 28.5,63.5 28.5,64.5C 37.5062,64.6664 46.5062,64.4998 55.5,64C 57.2112,62.8668 57.7112,61.3668 57,59.5C 44.5755,58.6769 32.0755,58.1769 19.5,58C 18.5495,54.9433 18.2161,51.7766 18.5,48.5C 28.5056,48.6665 38.5056,48.4998 48.5,48C 50.6576,46.6883 50.9909,45.0217 49.5,43C 46,42.8333 42.5,42.6667 39,42.5C 32.1473,43.1367 25.314,43.8034 18.5,44.5C 18.5,40.5 18.5,36.5 18.5,32.5 Z"/></g>
<g><path style="opacity:0.972" fill="#f9f9f9" d="M 125.5,32.5 C 142.5,32.5 159.5,32.5 176.5,32.5C 176.5,35.8333 176.5,39.1667 176.5,42.5C 159.5,42.5 142.5,42.5 125.5,42.5C 125.5,39.1667 125.5,35.8333 125.5,32.5 Z"/></g>
<g><path style="opacity:0.831" fill="#fefefe" d="M 145.5,45.5 C 148.833,45.5 152.167,45.5 155.5,45.5C 155.5,54.8333 155.5,64.1667 155.5,73.5C 152.167,73.5 148.833,73.5 145.5,73.5C 145.5,64.1667 145.5,54.8333 145.5,45.5 Z"/></g>
<g><path style="opacity:0.417" fill="#fdfdfd" d="M 25.5,86.5 C 23.8333,86.5 22.1667,86.5 20.5,86.5C 21.7698,80.0553 23.4365,80.0553 25.5,86.5 Z"/></g>
<g><path style="opacity:0.45" fill="#fafafa" d="M 109.5,86.5 C 106.833,86.5 104.167,86.5 101.5,86.5C 100.308,80.2182 101.475,79.8849 105,85.5C 107.98,79.9135 109.48,80.2469 109.5,86.5 Z"/></g>
<g><path style="opacity:0.405" fill="#f7f7f7" d="M 154.5,86.5 C 151.833,86.5 149.167,86.5 146.5,86.5C 146.672,85.5084 146.338,84.8417 145.5,84.5C 146.193,80.7222 147.36,80.7222 149,84.5C 149.57,81.1562 150.736,80.8228 152.5,83.5C 153.478,83.0233 154.311,82.3567 155,81.5C 155.384,83.1966 155.218,84.8632 154.5,86.5 Z"/></g>
<g><path style="opacity:0.446" fill="#f8f8f8" d="M 38.5,86.5 C 36.1667,86.5 33.8333,86.5 31.5,86.5C 30.8933,82.0972 32.56,80.7639 36.5,82.5C 37.3624,83.7658 38.0291,85.0992 38.5,86.5 Z"/></g>
<g><path style="opacity:0.699" fill="#eaeaea" d="M 45.5,86.5 C 43.8333,86.5 42.1667,86.5 40.5,86.5C 40.5,84.8333 40.5,83.1667 40.5,81.5C 45.4641,80.4573 47.1308,82.124 45.5,86.5 Z"/></g>
<g><path style="opacity:0.515" fill="#f0f0f0" d="M 52.5,86.5 C 51.8333,86.5 51.1667,86.5 50.5,86.5C 49.3326,85.2275 48.4993,83.8942 48,82.5C 50.0408,81.5769 52.2075,81.2436 54.5,81.5C 54.1692,83.3224 53.5025,84.9891 52.5,86.5 Z"/></g>
<g><path style="opacity:0.583" fill="#efefef" d="M 60.5,86.5 C 59.8333,86.5 59.1667,86.5 58.5,86.5C 58.1788,84.9519 57.1788,84.2852 55.5,84.5C 55.5,83.5 55.5,82.5 55.5,81.5C 57.8333,81.5 60.1667,81.5 62.5,81.5C 62.1692,83.3224 61.5025,84.9891 60.5,86.5 Z"/></g>
<g><path style="opacity:0.704" fill="#eaeaea" d="M 69.5,86.5 C 67.8333,86.5 66.1667,86.5 64.5,86.5C 64.5,84.8333 64.5,83.1667 64.5,81.5C 69.4641,80.4573 71.1308,82.124 69.5,86.5 Z"/></g>
<g><path style="opacity:0.435" fill="#f7f7f7" d="M 78.5,86.5 C 76.1667,86.5 73.8333,86.5 71.5,86.5C 71.1563,81.7452 73.1563,80.4119 77.5,82.5C 78.4287,83.6888 78.762,85.0222 78.5,86.5 Z"/></g>
<g><path style="opacity:0.419" fill="#ebebeb" d="M 88.5,86.5 C 87.5,86.5 86.5,86.5 85.5,86.5C 84.4975,84.9891 83.8308,83.3224 83.5,81.5C 85.8333,81.5 88.1667,81.5 90.5,81.5C 90.1692,83.3224 89.5025,84.9891 88.5,86.5 Z"/></g>
<g><path style="opacity:0.483" fill="#f9f9f9" d="M 99.5,86.5 C 98.8333,86.5 98.1667,86.5 97.5,86.5C 97.38,85.4138 96.7133,84.7472 95.5,84.5C 94.2867,84.7472 93.62,85.4138 93.5,86.5C 92.8333,86.5 92.1667,86.5 91.5,86.5C 92.4974,81.7514 94.9974,80.7514 99,83.5C 99.4828,84.448 99.6495,85.448 99.5,86.5 Z"/></g>
<g><path style="opacity:0.776" fill="#f6f6f6" d="M 118.5,86.5 C 117.833,86.5 117.167,86.5 116.5,86.5C 115.5,83.8333 114.5,83.8333 113.5,86.5C 112.5,86.5 111.5,86.5 110.5,86.5C 111.726,81.7125 114.226,80.7125 118,83.5C 118.483,84.448 118.649,85.448 118.5,86.5 Z"/></g>
<g><path style="opacity:0.475" fill="#f6f6f6" d="M 127.5,86.5 C 125.167,86.5 122.833,86.5 120.5,86.5C 120.156,81.7452 122.156,80.4119 126.5,82.5C 127.429,83.6888 127.762,85.0222 127.5,86.5 Z"/></g>
<g><path style="opacity:0.535" fill="#f6f6f6" d="M 135.5,86.5 C 133.5,86.5 131.5,86.5 129.5,86.5C 129.5,84.8333 129.5,83.1667 129.5,81.5C 133.56,80.8482 135.56,82.5149 135.5,86.5 Z"/></g>
<g><path style="opacity:0.525" fill="#f6f6f6" d="M 145.5,84.5 C 145.5,85.1667 145.5,85.8333 145.5,86.5C 144.833,86.5 144.167,86.5 143.5,86.5C 141.998,83.9781 140.665,83.9781 139.5,86.5C 138.833,86.5 138.167,86.5 137.5,86.5C 138.848,80.7185 141.514,80.0518 145.5,84.5 Z"/></g>
</svg>
