<?xml version="1.0" encoding="UTF-8"?>
<svg version="1.1" xmlns="http://www.w3.org/2000/svg" width="1554" height="300">
<path d="M0 0 C12.17920145 -0.09062943 24.35817627 -0.16390511 36.53763962 -0.20724869 C42.19400383 -0.228059 47.85012391 -0.25625633 53.50634766 -0.30175781 C58.97231675 -0.34545 64.43805208 -0.36918633 69.90418243 -0.37950897 C71.98203456 -0.38685855 74.05987495 -0.40120982 76.13762665 -0.42292023 C92.82819304 -0.59026926 105.26313297 0.59941069 117.74609375 12.69140625 C124.56401044 20.01939153 127.13810673 28.48323865 127.1875 38.3125 C127.20167969 39.58738281 127.21585938 40.86226562 127.23046875 42.17578125 C126.99001075 46.16575384 126.2354171 49.22538569 125 53 C125.58007812 53.11085937 126.16015625 53.22171875 126.7578125 53.3359375 C134.77339888 55.70989165 141.32359573 63.67669819 145.25 70.75 C149.86217407 80.76555792 150.07546233 91.80517616 146.375 102.125 C142.07894863 111.80645862 134.99168745 119.5385343 125.1725626 123.79152393 C118.76409501 126.16715218 112.93348 126.40892722 106.14624023 126.34057617 C104.41788689 126.34123329 104.41788689 126.34123329 102.65461731 126.34190369 C98.87243291 126.33982527 95.09070006 126.31653825 91.30859375 126.29296875 C88.67587018 126.28736945 86.04314347 126.28310093 83.41041565 126.28010559 C77.20576106 126.27081434 71.00126672 126.2462406 64.79668242 126.21605712 C57.72770708 126.18242163 50.65872373 126.16600421 43.58968818 126.15097082 C29.05969801 126.11968804 14.52988089 126.06471294 0 126 C0 114.12 0 102.24 0 90 C9.24 90 18.48 90 28 90 C28 92.97 28 95.94 28 99 C38.8487823 98.93874933 49.69732481 98.86161437 60.54584694 98.76428509 C65.58344544 98.71958677 70.62096317 98.68032936 75.65869141 98.65356445 C80.5217781 98.62752624 85.38455388 98.58711994 90.24744797 98.53681374 C92.10131331 98.52014857 93.95523242 98.50863211 95.80916214 98.50238609 C98.40907517 98.49274122 101.00819341 98.46467758 103.60791016 98.43237305 C104.37180054 98.43380814 105.13569092 98.43524323 105.92272949 98.4367218 C110.67326521 98.35342133 113.96040851 97.51066234 118 95 C120.05717759 92.15608311 120.26227799 89.94855173 119.9375 86.5 C119.88464844 85.7471875 119.83179688 84.994375 119.77734375 84.21875 C118.58097383 80.8039856 117.11158115 79.8777265 114 78 C110.3264225 77.3935883 106.68416025 77.43626199 102.9675293 77.45410156 C101.29857353 77.43859505 101.29857353 77.43859505 99.59590149 77.42277527 C95.92186032 77.3933008 92.24836896 77.39184705 88.57421875 77.390625 C86.02544603 77.37564658 83.47668302 77.35892016 80.92793274 77.34051514 C74.90735368 77.30125962 68.88696107 77.27962182 62.86628896 77.26654124 C56.01010011 77.25066064 49.15409516 77.21224067 42.29801309 77.17194796 C28.19870834 77.08959123 14.09948934 77.03844803 0 77 C0 67.76 0 58.52 0 49 C4.18659302 48.99383667 4.18659302 48.99383667 8.45776367 48.98754883 C17.67799911 48.97035378 26.89795705 48.92585618 36.11802197 48.86790943 C41.70837459 48.83361426 47.2984532 48.80852548 52.88891602 48.80444336 C58.28377683 48.8001659 63.67801923 48.77174855 69.07268715 48.72656822 C71.13113109 48.71357562 73.18964898 48.70929175 75.24812889 48.71384621 C78.13118695 48.71873958 81.01242881 48.69271572 83.89526367 48.65942383 C84.74690598 48.66804947 85.59854828 48.67667511 86.47599792 48.68556213 C90.7954287 48.60191119 92.49594147 48.39526373 96.00654602 45.64237976 C98.3415813 42.5472243 99 40.87350279 99 37 C97.47126129 33.02527937 96.57219503 31.38146335 93 29 C90.06815971 28.6702078 90.06815971 28.6702078 86.69262695 28.68115234 C85.39150467 28.66128265 84.09038239 28.64141296 82.74983215 28.62094116 C81.32931691 28.60906469 79.90879988 28.59740184 78.48828125 28.5859375 C77.03524167 28.56722765 75.58221297 28.54765438 74.12919617 28.5272522 C70.30702123 28.47590536 66.48481105 28.43629347 62.66247559 28.39910889 C58.761223 28.35908513 54.8601173 28.30798539 50.95898438 28.2578125 C43.30609033 28.16102306 35.65312528 28.07662811 28 28 C28 30.64 28 33.28 28 36 C18.76 36 9.52 36 0 36 C0 24.12 0 12.24 0 0 Z " fill="#FBFBFB" transform="translate(918,99)"/>
<path d="M0 0 C26 0 26 0 31.73046875 5.24609375 C33.01521403 7.65136361 34.11610262 9.94934843 35.1875 12.4375 C35.83401714 13.71940372 36.49131947 14.99591863 37.15869141 16.26708984 C38.5148276 18.87362875 39.81879903 21.49725502 41.08837891 24.14697266 C43.95411919 30.04155311 47.43524354 35.55070317 50.875 41.125 C52.09650659 43.15719979 53.31532738 45.19101675 54.53125 47.2265625 C57.79333544 52.66276613 61.07463088 58.08695678 64.375 63.5 C64.83374512 64.2542627 65.29249023 65.00852539 65.76513672 65.78564453 C67.64395806 69.07196302 67.64395806 69.07196302 70 72 C70.31638428 71.4423999 70.63276855 70.8847998 70.95874023 70.31030273 C72.4497987 67.6849719 73.94322745 65.06100284 75.4375 62.4375 C76.24815918 61.01377075 76.24815918 61.01377075 77.07519531 59.5612793 C80.75178815 53.12615729 84.50213088 46.74396762 88.40795898 40.44506836 C90.38455622 37.44430718 90.38455622 37.44430718 91 34 C92 33 93 32 94 31 C94 30.34 94 29.68 94 29 C94.99578361 27.99580132 95.99636147 26.99634818 97 26 C97.99011214 24.26986475 97.99011214 24.26986475 98.8125 22.375 C100.66325375 18.51102176 102.87946235 15.06850902 105.33984375 11.56640625 C107.76120636 7.82326452 109.86651372 3.91253599 112 0 C116.14581887 -0.02886751 120.29161216 -0.04675327 124.4375 -0.0625 C125.62150391 -0.07087891 126.80550781 -0.07925781 128.02539062 -0.08789062 C129.15009766 -0.09111328 130.27480469 -0.09433594 131.43359375 -0.09765625 C132.47572021 -0.10289307 133.51784668 -0.10812988 134.59155273 -0.11352539 C137 0 137 0 138 1 C138.09808025 2.56655459 138.12631877 4.13753152 138.12698364 5.70715332 C138.12980347 6.72519547 138.13262329 7.74323761 138.13552856 8.79212952 C138.13249222 10.48153908 138.13249222 10.48153908 138.12939453 12.20507812 C138.13202301 13.97316078 138.13202301 13.97316078 138.13470459 15.77696228 C138.13836267 19.01861608 138.13748974 22.26022933 138.1343255 25.50188255 C138.13180144 28.88736433 138.13413957 32.27284332 138.13571167 35.6583252 C138.13753323 41.34465016 138.13512741 47.03096216 138.13037109 52.71728516 C138.1249285 59.30028018 138.12669116 65.88324423 138.1321975 72.4662385 C138.13672901 78.10869313 138.13737899 83.75113841 138.13475883 89.39359426 C138.13319627 92.76777752 138.13300172 96.14194621 138.13629532 99.51612854 C138.13882012 103.27574796 138.13498368 107.03530698 138.12939453 110.79492188 C138.13141876 111.92119492 138.13344299 113.04746796 138.13552856 114.20787048 C138.13270874 115.22591263 138.12988892 116.24395477 138.12698364 117.29284668 C138.1264181 118.62795918 138.1264181 118.62795918 138.12584114 119.99004364 C138 122 138 122 137 123 C127.76 123 118.52 123 109 123 C108.67 101.55 108.34 80.1 108 58 C103.66875 65.30125 103.66875 65.30125 99.25 72.75 C96.37084961 77.54199219 96.37084961 77.54199219 95.15052795 79.57110596 C91.79533239 85.16204788 88.54919617 90.74306035 85.62890625 96.578125 C78.99528628 109.60200138 78.99528628 109.60200138 73.171875 111.94140625 C69.4715991 112.78743698 66.47811109 112.61566494 62.93994141 111.22900391 C56.36775049 107.0653481 53.00090837 98.6449311 49.56005859 91.96435547 C47.09941569 87.28874888 44.32134284 82.81613386 41.5625 78.3125 C40.62399681 76.74747386 39.68772049 75.1811097 38.75390625 73.61328125 C35.8434254 68.73770978 32.92141617 63.86902696 30 59 C29.67 80.12 29.34 101.24 29 123 C19.43 123 9.86 123 0 123 C0 82.41 0 41.82 0 0 Z " fill="#F8F8F8" transform="translate(338,99)"/>
<path d="M0 0 C0.99 0 1.98 0 3 0 C4.69921875 1.88671875 4.69921875 1.88671875 6.6875 4.6875 C7.48544249 5.79147691 8.28505934 6.89424467 9.0859375 7.99609375 C9.7660791 8.93751221 9.7660791 8.93751221 10.45996094 9.89794922 C13.51235028 14.06425744 16.67301982 18.14919035 19.8125 22.25 C24.56822799 28.48037233 29.30741896 34.72192355 34 41 C41.93504469 51.61212311 49.9915592 62.13204415 58.03369141 72.66308594 C65.98742122 83.07937213 73.90648807 93.51925576 81.75561523 104.01464844 C85.34397182 108.80809678 88.96199619 113.57588123 92.625 118.3125 C102 130.46875 102 130.46875 102 133 C73.25705854 135.66026889 73.25705854 135.66026889 65.37158203 131.66992188 C61.25139291 128.0636025 58.88489648 123.42163422 56.43310547 118.59277344 C53.80000504 113.82896994 50.30496783 109.69682642 46.9375 105.4375 C45.57153697 103.65278166 44.20949109 101.8650578 42.8515625 100.07421875 C42.19833008 99.21489746 41.54509766 98.35557617 40.87207031 97.47021484 C37.68564183 93.26569171 34.52550911 89.04163067 31.36694336 84.81616211 C27.24607424 79.31026769 23.06832179 73.84905748 18.88330078 68.3918457 C13.19848136 60.97061926 7.59443107 53.4894816 2 46 C-2.70215177 50.3541747 -6.31930747 55.31589666 -10.0625 60.5 C-11.28163227 62.1777521 -12.50165942 63.85485436 -13.72265625 65.53125 C-14.52328491 66.63823242 -14.52328491 66.63823242 -15.34008789 67.76757812 C-17.16891344 70.22717231 -19.0732953 72.61657746 -21 75 C-20.16452637 74.93603027 -19.32905273 74.87206055 -18.46826172 74.80615234 C4.77235714 73.35982709 4.77235714 73.35982709 11.69824219 77.68505859 C15.94534855 81.75402401 18.90333012 86.52270941 21.67578125 91.67626953 C23.4630656 94.81258451 25.62966457 97.57212355 27.88085938 100.38647461 C29 102 29 102 29 104 C28.13128769 103.95558777 27.26257538 103.91117554 26.36753845 103.86541748 C18.11787742 103.46207693 9.87158791 103.15897342 1.61427975 102.96375656 C-2.63036919 102.85998755 -6.86678478 102.71981053 -11.10668945 102.49121094 C-29.17880359 100.85113255 -29.17880359 100.85113255 -45.95477295 105.88256836 C-50.69660981 110.40641819 -53.73157162 115.58900682 -56.64302063 121.40589905 C-62.10728135 131.85177925 -62.10728135 131.85177925 -66.92353821 133.76351929 C-69.05090711 134.03924316 -70.98132734 134.01937881 -73.12109375 133.87890625 C-74.23823509 133.85980446 -74.23823509 133.85980446 -75.37794495 133.84031677 C-77.7345826 133.79030662 -80.08323309 133.67754818 -82.4375 133.5625 C-84.04350771 133.51730825 -85.64963743 133.47625182 -87.25585938 133.43945312 C-91.1736053 133.34073067 -95.0854539 133.1857417 -99 133 C-97.39254071 128.71823939 -95.25381442 125.51572026 -92.375 122 C-91.37993237 120.75907625 -90.38654938 119.51680043 -89.39453125 118.2734375 C-88.8526416 117.59506836 -88.31075195 116.91669922 -87.75244141 116.21777344 C-84.46840465 112.06171466 -81.26829837 107.84151219 -78.0625 103.625 C-77.37397949 102.72007812 -76.68545898 101.81515625 -75.97607422 100.8828125 C-71.4825176 94.96928774 -67.01743524 89.03509218 -62.56958008 83.0871582 C-55.08945311 73.09572962 -47.49104211 63.19347121 -39.91796875 53.27246094 C-29.8628083 40.09926534 -29.8628083 40.09926534 -19.875 26.875 C-19.17274292 25.94240356 -19.17274292 25.94240356 -18.45629883 24.9909668 C-15.6783333 21.28748738 -12.95187443 17.55127874 -10.25390625 13.7890625 C-9.6192041 12.91008301 -8.98450195 12.03110352 -8.33056641 11.12548828 C-7.0888071 9.40329591 -5.85510075 7.67526223 -4.63037109 5.94091797 C-4.07043457 5.16635254 -3.51049805 4.39178711 -2.93359375 3.59375 C-2.43915771 2.89958984 -1.94472168 2.20542969 -1.43530273 1.49023438 C-0.72482788 0.75256836 -0.72482788 0.75256836 0 0 Z " fill="#FCFCFC" transform="translate(1173,92)"/>
<path d="M0 0 C15.6853125 -0.0928125 15.6853125 -0.0928125 31.6875 -0.1875 C36.60015747 -0.22846802 36.60015747 -0.22846802 41.61206055 -0.27026367 C44.24527621 -0.27903605 46.87849599 -0.2866782 49.51171875 -0.29296875 C50.50943047 -0.30472893 50.50943047 -0.30472893 51.52729797 -0.31672668 C67.9122479 -0.49983374 83.15614775 2.17718731 95.4375 13.75 C105.17179806 24.15616775 107.6328904 35.92965981 107.31640625 49.73046875 C106.86310536 58.26352601 103.73196462 67.50155174 98 74 C96.68043228 74.69351514 95.34567244 75.35860472 94 76 C92.67058053 77.0837362 91.35929911 78.18993493 90.0625 79.3125 C77.1797548 89.46638784 61.04648005 90.260119 45.3125 90.625 C40.589375 90.74875 35.86625 90.8725 31 91 C31 101.56 31 112.12 31 123 C20.77 123 10.54 123 0 123 C0 82.41 0 41.82 0 0 Z M31 26 C31 38.54 31 51.08 31 64 C37.1875 64.061875 37.1875 64.061875 43.5 64.125 C44.78455078 64.14320801 46.06910156 64.16141602 47.39257812 64.18017578 C57.76948704 64.23021999 65.95508228 63.0795276 74 56 C76.71249659 51.00900627 76.70528814 45.41102991 75.5703125 39.921875 C73.89056734 34.48862522 70.84868253 30.95628411 66 28 C61.53999265 26.23686354 57.85268259 25.76236564 53.0703125 25.8046875 C51.32645264 25.81218018 51.32645264 25.81218018 49.54736328 25.81982422 C47.35829346 25.84713623 47.35829346 25.84713623 45.125 25.875 C38.133125 25.936875 38.133125 25.936875 31 26 Z " fill="#F9F9F9" transform="translate(90,99)"/>
<path d="M0 0 C9.9 0 19.8 0 30 0 C35.2060467 10.15797239 39.93054306 20.44964845 44.47637939 30.9178772 C46.45552888 35.47473769 48.44730872 40.02607888 50.4375 44.578125 C50.83184235 45.48089676 51.22618469 46.38366852 51.63247681 47.313797 C54.91965894 54.83332379 58.25780414 62.32847317 61.625 69.8125 C62.12354492 70.92423584 62.62208984 72.03597168 63.13574219 73.18139648 C65.82659448 79.17936271 68.53041366 85.17109153 71.24856567 91.15672302 C72.75986471 94.4902191 74.2630449 97.82733996 75.76483154 101.16513062 C76.5005666 102.79534461 77.23982607 104.42397291 77.98272705 106.05093384 C79.01564887 108.31389617 80.03643583 110.58196945 81.0546875 112.8515625 C81.36851379 113.53136673 81.68234009 114.21117096 82.00567627 114.91157532 C84.11393373 119.6581988 84.11393373 119.6581988 83 123 C72.77 123 62.54 123 52 123 C49.37341172 117.74682345 46.91236658 112.62099767 44.75 107.1875 C44.481875 106.53330078 44.21375 105.87910156 43.9375 105.20507812 C42.77852865 102.31060631 42 100.14820745 42 97 C24.18 97.33 6.36 97.66 -12 98 C-12.99 100.97 -13.98 103.94 -15 107 C-16.0199358 109.67923433 -17.05237274 112.34268725 -18.125 115 C-18.38925781 115.66644531 -18.65351563 116.33289063 -18.92578125 117.01953125 C-20.87316645 121.87316645 -20.87316645 121.87316645 -22 123 C-24.29151417 123.08790975 -26.58572524 123.10694038 -28.87890625 123.09765625 C-29.90889992 123.09553383 -29.90889992 123.09553383 -30.95970154 123.09336853 C-33.16067801 123.08775479 -35.36155409 123.07520007 -37.5625 123.0625 C-39.05143083 123.05748676 -40.54036324 123.05292355 -42.02929688 123.04882812 C-45.68623075 123.03778093 -49.34310558 123.02050713 -53 123 C-52.32618065 118.31761387 -50.50631312 114.23409716 -48.59765625 109.94921875 C-48.24862244 109.15530731 -47.89958862 108.36139587 -47.53997803 107.54342651 C-46.38589359 104.92251247 -45.22435481 102.30497765 -44.0625 99.6875 C-43.24866533 97.84444183 -42.43511171 96.00125953 -41.62182617 94.15795898 C-35.34286799 79.94710336 -28.97205781 65.77770425 -22.58056641 51.6171875 C-17.48639653 40.32766309 -12.43950853 29.01816263 -7.4375 17.6875 C-7.11327057 16.95427521 -6.78904114 16.22105042 -6.45498657 15.46560669 C-5.55044162 13.41917 -4.64786498 11.37187895 -3.74609375 9.32421875 C-3.23747803 8.17010498 -2.7288623 7.01599121 -2.20483398 5.8269043 C-0.95531562 3.00102899 -0.95531562 3.00102899 0 0 Z M14 32 C13.85522217 32.54785156 13.71044434 33.09570312 13.5612793 33.66015625 C11.29979222 41.71409503 8.07405932 49.31619768 4.8125 57 C3.97423667 58.97977437 3.13751829 60.96014351 2.30509949 62.94238281 C1.55851389 64.71969824 0.80638569 66.49468243 0.05395508 68.26953125 C-1.12003411 70.82316744 -1.12003411 70.82316744 -1 73 C9.56 73 20.12 73 31 73 C29.08866668 67.26600003 27.1549889 61.69115749 24.86328125 56.12109375 C24.57897751 55.42355484 24.29467377 54.72601593 24.00175476 54.00733948 C23.10801566 51.81628729 22.21033939 49.62687471 21.3125 47.4375 C20.6996065 45.93695647 20.08697412 44.43630626 19.47460938 42.93554688 C17.98608128 39.28912737 16.49402412 35.64417091 15 32 C14.67 32 14.34 32 14 32 Z " fill="#F8F8F8" transform="translate(245,99)"/>
<path d="M0 0 C0.53882813 0.4434375 1.07765625 0.886875 1.6328125 1.34375 C1.00303636 6.6798262 -0.71035217 11.23198793 -2.7421875 16.15625 C-3.04640625 16.93162109 -3.350625 17.70699219 -3.6640625 18.50585938 C-3.96570313 19.24255859 -4.26734375 19.97925781 -4.578125 20.73828125 C-4.84931152 21.40706299 -5.12049805 22.07584473 -5.39990234 22.76489258 C-6.3671875 24.34375 -6.3671875 24.34375 -9.3671875 25.34375 C-11.71484375 24.453125 -11.71484375 24.453125 -14.4296875 23.09375 C-27.27423482 16.98537875 -42.49526311 13.41780134 -56.3671875 18.34375 C-59.02436004 20.07091215 -60.03381549 21.21075141 -60.92578125 24.2421875 C-61.51394078 27.50435065 -61.83912229 29.42543645 -60.28515625 32.44921875 C-57.65771412 35.04455364 -55.28859112 35.62965948 -51.7421875 36.65625 C-51.06140137 36.85863281 -50.38061523 37.06101563 -49.67919922 37.26953125 C-45.17155127 38.5937452 -40.63645243 39.81596964 -36.1015625 41.04296875 C-35.01053223 41.34098389 -33.91950195 41.63899902 -32.79541016 41.94604492 C-30.64176889 42.53133235 -28.4852694 43.10623189 -26.32568359 43.66918945 C-15.06434637 46.71112711 -3.55362562 51.3205308 3.046875 61.53125 C7.42537325 70.09924658 8.15255271 80.09155454 5.87890625 89.4453125 C4.13157675 93.98151692 2.04417331 97.83492173 -1.3671875 101.34375 C-1.80160156 101.80007812 -2.23601562 102.25640625 -2.68359375 102.7265625 C-15.01489445 114.53246944 -32.04112545 117.86273089 -48.52978516 117.69555664 C-64.45984477 117.2048524 -82.90427 113.93722988 -95.3671875 103.34375 C-94.69498912 98.58234482 -92.83446848 94.55624902 -90.8671875 90.21875 C-88.43454157 84.85497157 -88.43454157 84.85497157 -86.3671875 79.34375 C-81.97636776 79.94994526 -78.74289206 81.61200234 -74.8671875 83.71875 C-61.2913864 90.71131981 -45.89043932 92.39051406 -30.8671875 89.53125 C-27.1398162 88.66321303 -27.1398162 88.66321303 -25.3671875 85.34375 C-24.70359306 81.23783076 -24.70359306 81.23783076 -25.3671875 77.34375 C-29.45833722 73.17764791 -33.27852348 71.35005635 -38.9296875 69.90625 C-40.01866333 69.60448853 -40.01866333 69.60448853 -41.12963867 69.29663086 C-43.53830823 68.63053278 -45.95193999 67.98556402 -48.3671875 67.34375 C-81.27157685 58.55305705 -81.27157685 58.55305705 -89.3671875 47.34375 C-93.99021261 38.93824979 -94.92516492 29.5677108 -92.6015625 20.28515625 C-90.36873231 13.75501397 -87.53610142 8.04276265 -82.3671875 3.34375 C-81.23030097 2.20686347 -80.10433305 1.05810471 -79.015625 -0.125 C-61.10935252 -16.75831472 -18.74007995 -13.11187112 0 0 Z " fill="#FBFBFB" transform="translate(587.3671875,106.65625)"/>
<path d="M0 0 C9.54570754 9.00054567 13.56231935 18.68587417 15 31.625 C13.99498283 52.68666424 -2.32424445 69.63606775 -16.84863281 83.25097656 C-49.40690857 112.6875 -49.40690857 112.6875 -59.4375 112.6875 C-58.23372043 109.07616128 -57.0740621 108.42954623 -54.0625 106.1875 C-37.79456333 93.48035634 -24.06835602 76.78445973 -21.4375 55.6875 C-20.94793841 43.19626191 -24.98163574 32.51768221 -33.09375 23.05859375 C-57.66963136 -1.80400623 -96.99360214 -8.8196944 -130.4375 -11.3125 C-131.51088623 -11.39709473 -131.51088623 -11.39709473 -132.60595703 -11.48339844 C-147.47229846 -12.62566336 -162.26365884 -12.60232313 -177.13989258 -11.6706543 C-182.91133784 -11.31391612 -188.65453558 -11.19785974 -194.4375 -11.3125 C-194.4375 -11.9725 -194.4375 -12.6325 -194.4375 -13.3125 C-138.49269459 -26.04085194 -47.94308069 -42.76505019 0 0 Z " fill="#FBFBFB" transform="translate(1496.4375,56.3125)"/>
<path d="M0 0 C52.14 0 104.28 0 158 0 C158 9.24 158 18.48 158 28 C137.54701487 28.02311723 117.09403342 28.04097832 96.64103794 28.05181217 C87.14504617 28.0569755 77.64906265 28.06401889 68.15307617 28.07543945 C59.87947155 28.08538517 51.60587289 28.09185316 43.33226246 28.09408849 C38.9486641 28.09539579 34.56508284 28.09848285 30.18148994 28.10573006 C26.060365 28.11248851 21.93926427 28.11461732 17.81813431 28.11310768 C16.30113659 28.11338409 14.7841381 28.11539025 13.26714516 28.11920547 C11.20492699 28.12414001 9.14280174 28.1229992 7.08058167 28.12025452 C5.92373147 28.12117631 4.76688128 28.1220981 3.57497501 28.12304783 C1 28 1 28 0 27 C0 18.09 0 9.18 0 0 Z " fill="#F4F4F4" transform="translate(1249,99)"/>
<path d="M0 0 C7.00412678 8.33077401 7.74610933 16.21445287 7.21777344 26.73095703 C5.65793139 42.983392 -5.17635178 57.6096467 -15 70 C-15.70640625 70.93714844 -16.4128125 71.87429687 -17.140625 72.83984375 C-17.75421875 73.55269531 -18.3678125 74.26554687 -19 75 C-19.66 75 -20.32 75 -21 75 C-20.68806536 73.27073126 -20.37542638 71.54158956 -20.0625 69.8125 C-19.80146484 68.36810547 -19.80146484 68.36810547 -19.53515625 66.89453125 C-19.20613755 65.11494837 -18.85112967 63.33965377 -18.453125 61.57421875 C-16.47536501 50.33849607 -17.60061189 38.37410391 -23.5078125 28.47265625 C-25.21273733 26.1531655 -27.01318342 24.08199342 -29 22 C-29.63550781 21.31292969 -30.27101563 20.62585937 -30.92578125 19.91796875 C-45.38445452 5.6771286 -68.51570312 1.55427637 -88 0 C-89.00232666 -0.08459473 -89.00232666 -0.08459473 -90.02490234 -0.17089844 C-108.61386958 -1.64545158 -127.36829504 -1.0932446 -146 -1 C-146 -1.66 -146 -2.32 -146 -3 C-33.7271176 -27.31716808 -33.7271176 -27.31716808 0 0 Z " fill="#FAFAFA" transform="translate(1540,23)"/>
<path d="M0 0 C9.24 0 18.48 0 28 0 C28 28.05 28 56.1 28 85 C18.76 85 9.52 85 0 85 C0 56.95 0 28.9 0 0 Z " fill="#FEFEFE" transform="translate(1314,140)"/>
<path d="M0 0 C9.9 0 19.8 0 30 0 C35.2060467 10.15797239 39.93054306 20.44964845 44.47637939 30.9178772 C46.45552888 35.47473769 48.44730872 40.02607888 50.4375 44.578125 C50.83184235 45.48089676 51.22618469 46.38366852 51.63247681 47.313797 C54.91965894 54.83332379 58.25780414 62.32847317 61.625 69.8125 C62.12354492 70.92423584 62.62208984 72.03597168 63.13574219 73.18139648 C65.82659448 79.17936271 68.53041366 85.17109153 71.24856567 91.15672302 C72.75986471 94.4902191 74.2630449 97.82733996 75.76483154 101.16513062 C76.5005666 102.79534461 77.23982607 104.42397291 77.98272705 106.05093384 C79.01564887 108.31389617 80.03643583 110.58196945 81.0546875 112.8515625 C81.36851379 113.53136673 81.68234009 114.21117096 82.00567627 114.91157532 C84.11393373 119.6581988 84.11393373 119.6581988 83 123 C80.49620539 120.49620539 79.39915611 117.70726209 78.0078125 114.51171875 C77.71019012 113.83853104 77.41256775 113.16534332 77.10592651 112.47175598 C76.10804113 110.21218287 75.1166434 107.94981863 74.125 105.6875 C73.41587357 104.07920257 72.70622633 102.47113468 71.99609375 100.86328125 C70.46729243 97.40101079 68.94059405 93.93782309 67.41503906 90.47412109 C63.7195603 82.09025024 59.99182541 73.72070784 56.26739502 65.34967041 C55.0007131 62.50160337 53.73525399 59.65299627 52.47021484 56.80419922 C48.77300849 48.47906507 45.07276856 40.15538442 41.35095215 31.84121704 C39.83772401 28.46050183 38.32699135 25.07867419 36.81640625 21.69677734 C36.11007548 20.11755888 35.40241041 18.53893647 34.69335938 16.9609375 C33.72459352 14.80483147 32.76024959 12.64680027 31.796875 10.48828125 C31.51044128 9.85412796 31.22400757 9.21997467 30.92889404 8.56660461 C29 4.22772864 29 4.22772864 29 2 C19.1 2 9.2 2 -1 2 C-0.67 1.34 -0.34 0.68 0 0 Z " fill="#070707" transform="translate(245,99)"/>
<path d="M0 0 C8.25039563 -0.06997553 16.50066414 -0.12304972 24.7512846 -0.15543652 C28.58372785 -0.17099236 32.41596584 -0.19204235 36.24829102 -0.22631836 C39.95713588 -0.25927666 43.66578521 -0.27692847 47.3747654 -0.28463173 C48.77913294 -0.29011067 50.18349162 -0.30080635 51.58777428 -0.31719017 C67.95015303 -0.50023526 83.17580775 2.19571307 95.4375 13.75 C103.79861695 22.68820849 107.39745612 33.12509889 107.375 45.25 C107.37628906 45.9814624 107.37757813 46.7129248 107.37890625 47.46655273 C107.25097106 54.11409435 105.63563643 59.89332452 103 66 C102.34 65.34 101.68 64.68 101 64 C101.21076172 63.45762695 101.42152344 62.91525391 101.63867188 62.35644531 C105.88729797 50.69521628 105.8151283 37.25900626 100.6796875 25.87109375 C93.39388295 13.41745109 83.50427451 7.79982345 70 4 C66.11160287 3.07962614 62.45833382 2.84894823 58.46557617 2.79467773 C57.16460495 2.77473251 55.86363373 2.75478729 54.52323914 2.73423767 C53.1131502 2.71725711 51.70306004 2.70037817 50.29296875 2.68359375 C48.84279308 2.66300625 47.39262318 2.64200932 45.94245911 2.62062073 C42.13673585 2.56558545 38.33096011 2.51609489 34.52514648 2.46777344 C30.63715985 2.41742249 26.74924887 2.36180757 22.86132812 2.30664062 C15.24094959 2.19928608 7.62050789 2.0977913 0 2 C0 1.34 0 0.68 0 0 Z " fill="#080808" transform="translate(90,99)"/>
<path d="M0 0 C4.14581887 -0.02886751 8.29161216 -0.04675327 12.4375 -0.0625 C14.21350586 -0.07506836 14.21350586 -0.07506836 16.02539062 -0.08789062 C17.15009766 -0.09111328 18.27480469 -0.09433594 19.43359375 -0.09765625 C20.47572021 -0.10289307 21.51784668 -0.10812988 22.59155273 -0.11352539 C25 0 25 0 26 1 C26.09591199 2.56887635 26.12187996 4.14207792 26.12025452 5.71388245 C26.12162918 6.73336975 26.12300385 7.75285706 26.12442017 8.80323792 C26.12082489 9.931082 26.11722961 11.05892609 26.11352539 12.22094727 C26.11367142 13.40127533 26.11381744 14.58160339 26.1139679 15.79769897 C26.11338895 19.04342108 26.10835986 22.28910055 26.10139394 25.53481412 C26.09515962 28.92343032 26.09455654 32.31204728 26.09336853 35.70066833 C26.09025544 42.12155804 26.08204236 48.54243081 26.07201904 54.96331304 C26.0608572 62.27153825 26.05534727 69.57976424 26.05032361 76.88799584 C26.03985973 91.92534002 26.02226073 106.96266832 26 122 C25.01 122.495 25.01 122.495 24 123 C24 83.07 24 43.14 24 2 C11.625 2.495 11.625 2.495 -1 3 C-0.67 2.01 -0.34 1.02 0 0 Z " fill="#030303" transform="translate(450,99)"/>
<path d="M0 0 C3.90739255 1.95369627 4.67242885 8.15004368 6 12 C7.65 8.37 9.3 4.74 11 1 C12.32 1 13.64 1 15 1 C14.29807915 5.93321834 12.36469225 10.25974682 10.4375 14.8125 C10.10814453 15.60076172 9.77878906 16.38902344 9.43945312 17.20117188 C8.63041094 19.13583796 7.81576148 21.06815753 7 23 C6.34 23 5.68 23 5 23 C3.68 19.7 2.36 16.4 1 13 C-0.53521956 15.30282933 -1.58357909 17.17862235 -2.625 19.6875 C-3.07875 20.780625 -3.5325 21.87375 -4 23 C-4.66 23 -5.32 23 -6 23 C-7.33891561 19.71057634 -8.67017703 16.41810891 -10 13.125 C-10.3815625 12.18785156 -10.763125 11.25070312 -11.15625 10.28515625 C-11.5171875 9.38925781 -11.878125 8.49335938 -12.25 7.5703125 C-12.58515625 6.74289551 -12.9203125 5.91547852 -13.265625 5.06298828 C-14 3 -14 3 -14 1 C-11.64453125 1.18359375 -11.64453125 1.18359375 -9 2 C-7.10201876 5.18142987 -6.20626918 8.47054574 -5 12 C-3.35 8.04 -1.7 4.08 0 0 Z " fill="#F4F4F4" transform="translate(1327,252)"/>
<path d="M0 0 C4.20452679 2.10226339 5.22371518 3.33557277 7.75 7.125 C8.67039062 8.49011719 8.67039062 8.49011719 9.609375 9.8828125 C10.29773437 10.93082031 10.29773437 10.93082031 11 12 C14.48617227 8.61636221 17.66842932 5.09924394 20.765625 1.35546875 C21.17296875 0.90816406 21.5803125 0.46085938 22 0 C22.33 0 22.66 0 23 0 C23 7.26 23 14.52 23 22 C21.68 22 20.36 22 19 22 C18.67 19.03 18.34 16.06 18 13 C16.02 15.31 14.04 17.62 12 20 C7.125 15.25 7.125 15.25 6 13 C5.67 15.97 5.34 18.94 5 22 C3.68 22 2.36 22 1 22 C0.67 14.74 0.34 7.48 0 0 Z " fill="#F7F7F7" transform="translate(1174,252)"/>
<path d="M0 0 C4.31879743 0.03598998 5.83728857 0.09721346 9.5 2.5625 C11.38944108 5.59910173 11.98382439 6.88933416 11.25 10.375 C9.75 12.1875 9.75 12.1875 8.25 13.375 C8.559375 14.1175 8.86875 14.86 9.1875 15.625 C10.0594925 17.88192176 10.72667007 20.0200153 11.25 22.375 C9 22.25 9 22.25 6.25 21.375 C4.90729179 19.38128175 3.57346506 17.3815438 2.25 15.375 C0.93 15.375 -0.39 15.375 -1.75 15.375 C-1.75 17.355 -1.75 19.335 -1.75 21.375 C-3.4 21.375 -5.05 21.375 -6.75 21.375 C-6.77888146 18.06251813 -6.79675799 14.75006833 -6.8125 11.4375 C-6.82087891 10.49197266 -6.82925781 9.54644531 -6.83789062 8.57226562 C-6.84111328 7.67314453 -6.84433594 6.77402344 -6.84765625 5.84765625 C-6.85289307 5.01500244 -6.85812988 4.18234863 -6.86352539 3.32446289 C-6.62350334 -0.79720608 -3.47497376 0.11018209 0 0 Z M-1.75 4.375 C-2.08 6.355 -2.41 8.335 -2.75 10.375 C0.22 10.375 3.19 10.375 6.25 10.375 C6.58 9.055 6.91 7.735 7.25 6.375 C3.8147952 4.08486347 2.264669 4.19657027 -1.75 4.375 Z " fill="#F8F8F8" transform="translate(1242.75,252.625)"/>
<path d="M0 0 C8.60163835 -1.80544133 17.58444152 -3.11026056 26 0 C33.15146853 6.30942384 37.02466193 15.6930314 41.09277344 24.15576172 C43.93541062 30.00301855 47.39810411 35.47445927 50.8125 41 C52.03193204 43.02797552 53.2481376 45.05789502 54.4609375 47.08984375 C57.94933804 52.91633755 61.44289307 58.73972713 64.9375 64.5625 C65.925804 66.20962177 66.91408775 67.85675568 67.90234375 69.50390625 C68.30960693 70.18267822 68.71687012 70.8614502 69.13647461 71.56079102 C69.42143799 72.03572998 69.70640137 72.51066895 70 73 C69.34 73.66 68.68 74.32 68 75 C60.58610371 63.31851103 53.50618558 51.45802858 46.49267578 39.53271484 C44.46758325 36.09661575 42.42676285 32.67022877 40.375 29.25 C40.03082031 28.67540039 39.68664062 28.10080078 39.33203125 27.50878906 C37.24778664 24.04083762 35.13362956 20.59256263 33.00390625 17.15234375 C32.4948877 16.32766602 31.98586914 15.50298828 31.46142578 14.65332031 C30.46246397 13.03692905 29.45966518 11.42290144 28.45263672 9.81152344 C28.00291504 9.08352539 27.55319336 8.35552734 27.08984375 7.60546875 C26.68628662 6.95731201 26.28272949 6.30915527 25.86694336 5.64135742 C25 4 25 4 25 2 C16.75 2 8.5 2 0 2 C0 1.34 0 0.68 0 0 Z " fill="#0B0B0B" transform="translate(338,99)"/>
<path d="M0 0 C0.66 0.33 1.32 0.66 2 1 C1.64192708 2.953125 1.28385417 4.90625 0.92578125 6.859375 C1.03045197 9.87829899 1.83972858 10.90082716 4 13 C6.99976407 14.34336256 6.99976407 14.34336256 10.625 15.3125 C11.30578613 15.51488281 11.98657227 15.71726563 12.68798828 15.92578125 C17.19563623 17.2499952 21.73073507 18.47221964 26.265625 19.69921875 C27.35665527 19.99723389 28.44768555 20.29524902 29.57177734 20.60229492 C31.72541861 21.18758235 33.8819181 21.76248189 36.04150391 22.32543945 C47.30284113 25.36737711 58.81356188 29.9767808 65.4140625 40.1875 C69.79707038 48.76432117 70.57773422 58.86104361 68.17578125 68.20703125 C66.80319701 71.69206856 65.66191695 74.33808305 63 77 C63.47369743 74.31571454 64.04178046 71.8899835 65.01171875 69.3359375 C67.36534909 61.39127223 67.48737274 51.00729725 64 43.375 C56.08590862 30.39059939 41.86227334 26.93722127 27.9375 23.4375 C4.47975908 17.47975908 4.47975908 17.47975908 -1 12 C-2.3899408 9.2201184 -2.18488204 7.0813674 -2 4 C-1 1.625 -1 1.625 0 0 Z " fill="#020202" transform="translate(525,128)"/>
<path d="M0 0 C10 0 10 0 14 2 C14.6875 4.5 14.6875 4.5 15 8 C15.12503906 8.82886719 15.25007812 9.65773438 15.37890625 10.51171875 C15.56259766 11.83623047 15.56259766 11.83623047 15.75 13.1875 C15.86859375 14.02667969 15.9871875 14.86585938 16.109375 15.73046875 C16 18 16 18 14.93359375 19.7890625 C10.73561829 22.41809763 4.71392255 21.1400175 0 21 C0 14.07 0 7.14 0 0 Z M4 4 C3.67 5.65 3.34 7.3 3 9 C4.98 9 6.96 9 9 9 C9.66 7.68 10.32 6.36 11 5 C8.69 4.67 6.38 4.34 4 4 Z M3 13 C3.33 14.32 3.66 15.64 4 17 C6.64 17 9.28 17 12 17 C12 15.68 12 14.36 12 13 C9.03 13 6.06 13 3 13 Z " fill="#ECECEC" transform="translate(960,253)"/>
<path d="M0 0 C12.59717314 -0.27385159 12.59717314 -0.27385159 16 2 C17.52491998 5.04983996 17.23562548 7.6423369 17 11 C15.5 12.9375 15.5 12.9375 14 14 C15.32 16.31 16.64 18.62 18 21 C17.34 21.33 16.68 21.66 16 22 C12.72736399 20.5273138 11.27985952 19.57304568 9.6875 16.3125 C9.3471875 15.1678125 9.3471875 15.1678125 9 14 C7.35 14 5.7 14 4 14 C4 16.31 4 18.62 4 21 C2.68 21 1.36 21 0 21 C0 14.07 0 7.14 0 0 Z M4 4 C4 5.98 4 7.96 4 10 C6.64 10 9.28 10 12 10 C12.33 8.35 12.66 6.7 13 5 C10.04335481 3.5216774 7.25770263 3.93967217 4 4 Z " fill="#F0F0F0" transform="translate(1084,253)"/>
<path d="M0 0 C12.59717314 -0.27385159 12.59717314 -0.27385159 16 2 C17.40457737 4.80915474 17.24895157 6.88810534 17 10 C15.5 12.375 15.5 12.375 14 14 C14.7734375 15.1446875 14.7734375 15.1446875 15.5625 16.3125 C16.036875 17.199375 16.51125 18.08625 17 19 C16.67 19.99 16.34 20.98 16 22 C12.83282717 20.41641358 11.26731682 19.54736301 9.6875 16.3125 C9.3471875 15.1678125 9.3471875 15.1678125 9 14 C7.35 14 5.7 14 4 14 C4 16.31 4 18.62 4 21 C2.68 21 1.36 21 0 21 C0 14.07 0 7.14 0 0 Z M4 4 C4 5.98 4 7.96 4 10 C6.64 10 9.28 10 12 10 C12.33 8.35 12.66 6.7 13 5 C10.04335481 3.5216774 7.25770263 3.93967217 4 4 Z " fill="#EFEFEF" transform="translate(1263,253)"/>
<path d="M0 0 C3.02508145 1.73602105 5.41790069 3.83580137 7 7 C7.37593152 11.98109259 7.1765161 15.05673864 4 19 C1.24116669 21.16232881 -0.51542103 21.93942763 -4 22.375 C-7.55357401 21.93080325 -9.24911156 21.30479842 -12 19 C-14.02114646 15.42930793 -15.01983423 12.99171126 -14.9375 8.875 C-13.84951528 5.53851353 -12.39780977 3.54313158 -10 1 C-6.77140153 -0.61429923 -3.49006347 -0.59570657 0 0 Z M-11 9 C-11.0715787 12.57893502 -10.6663269 14.234958 -8.3125 16.9375 C-5.12702876 18.40109489 -3.32118677 17.98928968 0 17 C1.98029682 15.93654948 1.98029682 15.93654948 3 14 C3.54624158 10.33237794 3.47898298 8.6741242 1.3125 5.625 C-0.88213034 3.86621181 -0.88213034 3.86621181 -3.4375 3.4375 C-7.23492622 4.27108137 -8.71709901 5.91136925 -11 9 Z " fill="#EBEBEB" transform="translate(1220,253)"/>
<path d="M0 0 C2.97672584 1.77280561 5.42804007 3.85608015 7 7 C7.68128376 13.81283762 7.68128376 13.81283762 5.953125 16.82421875 C3.04275856 20.35945798 1.28356236 21.85189665 -3.25 22.375 C-8.19272958 21.88072704 -9.53828301 20.46171699 -13 17 C-14.73631636 13.52736727 -14.60190402 9.78806987 -14 6 C-9.78502349 0.67581915 -6.7408423 -0.67408423 0 0 Z M-10 7 C-10.57198503 9.77326075 -10.56516801 12.22606314 -10 15 C-8.51869332 17.23608998 -8.51869332 17.23608998 -6 18 C-2.85858144 17.87177883 -0.78882568 17.4995896 1.875 15.8125 C3.58558918 13.05655076 3.45339217 11.17374516 3 8 C1.01241034 5.20265158 -0.10165277 4.15721076 -3.5 3.5625 C-6.63630966 4.11135419 -7.92744557 4.54363919 -10 7 Z " fill="#F0F0F0" transform="translate(1302,253)"/>
<path d="M0 0 C3.5386994 1.65139305 4.81070153 2.71605229 7 6 C7.265625 8.12109375 7.265625 8.12109375 7.25 10.4375 C7.25515625 11.19933594 7.2603125 11.96117187 7.265625 12.74609375 C6.8388478 16.36742382 5.66077375 18.41932004 2.9375 20.8125 C-1.26667385 22.51205964 -4.69178465 22.38673116 -9 21 C-11.92837797 18.54972455 -13.56680768 16.80079122 -14.47265625 13.03515625 C-14.76870317 9.08027303 -14.12212999 6.66161668 -11.625 3.5625 C-7.6742692 -0.29416578 -5.48740163 -0.37202723 0 0 Z M-8.4375 5.5625 C-10.42236225 8.65888511 -10.53852618 10.38418138 -10 14 C-8.35233015 16.65457921 -7.07653979 16.97720091 -4.0625 17.875 C-1.03111831 18.24095524 -1.03111831 18.24095524 1.3125 16.875 C3.44844689 14.50172568 3.92398434 13.19265766 4 10 C3.15254366 7.14298293 3.15254366 7.14298293 1 5 C-2.93867553 3.7825912 -4.90129253 3.29570034 -8.4375 5.5625 Z " fill="#F0F0F0" transform="translate(1159,253)"/>
<path d="M0 0 C4.95 0 9.9 0 15 0 C15 1.32 15 2.64 15 4 C11.37 4 7.74 4 4 4 C4 5.32 4 6.64 4 8 C6.97 8 9.94 8 13 8 C13 9.32 13 10.64 13 12 C10.03 12 7.06 12 4 12 C4 13.65 4 15.3 4 17 C7.63 17 11.26 17 15 17 C15 18.32 15 19.64 15 21 C10.05 21 5.1 21 0 21 C0 14.07 0 7.14 0 0 Z " fill="#E4E4E4" transform="translate(1060,253)"/>
<path d="M0 0 C4.95 0 9.9 0 15 0 C15 1.32 15 2.64 15 4 C11.37 4 7.74 4 4 4 C4 5.32 4 6.64 4 8 C6.97 8 9.94 8 13 8 C13 9.32 13 10.64 13 12 C10.03 12 7.06 12 4 12 C4 13.65 4 15.3 4 17 C7.63 17 11.26 17 15 17 C15 18.32 15 19.64 15 21 C10.05 21 5.1 21 0 21 C0 14.07 0 7.14 0 0 Z " fill="#DDDDDD" transform="translate(985,253)"/>
<path d="M0 0 C0.53882813 0.4434375 1.07765625 0.886875 1.6328125 1.34375 C1.01977622 6.74883043 -0.81099443 11.26814045 -2.9296875 16.21875 C-3.25904297 17.0025 -3.58839844 17.78625 -3.92773438 18.59375 C-4.73515536 20.51283756 -5.55038519 22.4286365 -6.3671875 24.34375 C-7.0271875 23.68375 -7.6871875 23.02375 -8.3671875 22.34375 C-5.7271875 15.74375 -3.0871875 9.14375 -0.3671875 2.34375 C-4.24953198 0.79081221 -8.13050951 -0.71489459 -12.0546875 -2.15625 C-13.76205078 -2.79046875 -13.76205078 -2.79046875 -15.50390625 -3.4375 C-24.36082491 -6.38786494 -32.94890829 -6.99592333 -42.2421875 -6.96875 C-43.33660156 -6.98486328 -44.43101562 -7.00097656 -45.55859375 -7.01757812 C-54.62191876 -7.02294104 -63.13435194 -5.68294424 -71.4296875 -1.90625 C-74.3671875 -0.65625 -74.3671875 -0.65625 -77.3671875 -1.65625 C-55.99212535 -13.86367827 -20.76075337 -14.52567563 0 0 Z " fill="#050505" transform="translate(587.3671875,106.65625)"/>
<path d="M0 0 C0.66 0 1.32 0 2 0 C3.54015031 3.07404893 5.05362087 6.16049712 6.5625 9.25 C7.00013672 10.12269531 7.43777344 10.99539063 7.88867188 11.89453125 C8.29794922 12.73886719 8.70722656 13.58320313 9.12890625 14.453125 C9.51119385 15.22817383 9.89348145 16.00322266 10.28735352 16.80175781 C11.10244103 19.31599145 10.88207936 20.54679315 10 23 C9.01 22.67 8.02 22.34 7 22 C6.67 20.68 6.34 19.36 6 18 C2.7 18 -0.6 18 -4 18 C-4.33 19.32 -4.66 20.64 -5 22 C-6.32 22.33 -7.64 22.66 -9 23 C-9.33 22.34 -9.66 21.68 -10 21 C-9.19555664 18.84521484 -9.19555664 18.84521484 -7.91015625 16.2109375 C-7.45576172 15.26992188 -7.00136719 14.32890625 -6.53320312 13.359375 C-6.04787109 12.37453125 -5.56253906 11.3896875 -5.0625 10.375 C-4.34030273 8.88613281 -4.34030273 8.88613281 -3.60351562 7.3671875 C-2.40935889 4.90793402 -1.2079369 2.45250665 0 0 Z M0 9 C-0.33 10.65 -0.66 12.3 -1 14 C0.32 14 1.64 14 3 14 C2.34 12.35 1.68 10.7 1 9 C0.67 9 0.34 9 0 9 Z " fill="#F2F2F2" transform="translate(928,252)"/>
<path d="M0 0 C0.66 0 1.32 0 2 0 C2 12.54 2 25.08 2 38 C6.08375 37.87625 10.1675 37.7525 14.375 37.625 C15.64134277 37.59100098 16.90768555 37.55700195 18.21240234 37.52197266 C24.99816296 37.28754197 31.39800509 36.60568667 38 35 C38 35.66 38 36.32 38 37 C32.2120058 39.55352685 26.79553522 40.12759779 20.5078125 40.09765625 C19.4264502 40.09515869 18.34508789 40.09266113 17.23095703 40.09008789 C15.1985083 40.07643188 15.1985083 40.07643188 13.125 40.0625 C8.79375 40.041875 4.4625 40.02125 0 40 C0 26.8 0 13.6 0 0 Z " fill="#090909" transform="translate(119,125)"/>
<path d="M0 0 C5.94 0 11.88 0 18 0 C18 1.32 18 2.64 18 4 C15.69 4 13.38 4 11 4 C11 9.61 11 15.22 11 21 C9.68 21 8.36 21 7 21 C7 15.39 7 9.78 7 4 C4.69 4 2.38 4 0 4 C0 2.68 0 1.36 0 0 Z " fill="#E6E6E6" transform="translate(1034,253)"/>
<path d="M0 0 C5.94 0 11.88 0 18 0 C18 1.32 18 2.64 18 4 C15.69 4 13.38 4 11 4 C11 9.61 11 15.22 11 21 C9.68 21 8.36 21 7 21 C7 15.39 7 9.78 7 4 C4.69 4 2.38 4 0 4 C0 2.68 0 1.36 0 0 Z " fill="#E7E7E7" transform="translate(1009,253)"/>
<path d="M0 0 C5.61 0 11.22 0 17 0 C17 1.32 17 2.64 17 4 C14.69 4 12.38 4 10 4 C10 9.61 10 15.22 10 21 C8.68 21 7.36 21 6 21 C6 15.72 6 10.44 6 5 C3.03 4.505 3.03 4.505 0 4 C0 2.68 0 1.36 0 0 Z " fill="#E7E7E7" transform="translate(1121,253)"/>
<path d="M0 0 C4.39081974 0.60619526 7.62429544 2.26825234 11.5 4.375 C25.28551324 11.47558751 40.79601047 12.98778875 56 10 C56 10.66 56 11.32 56 12 C39.85048579 17.3760034 23.16400411 13.69975467 8.25 6.4375 C2.29246344 3.43869516 2.29246344 3.43869516 0 0 Z " fill="#030303" transform="translate(501,186)"/>
<path d="M0 0 C2.125 0.375 2.125 0.375 4 1 C3.319375 2.03125 2.63875 3.0625 1.9375 4.125 C0.32098257 6.95103934 -0.00146662 7.9222689 0.0625 11.3125 C0.80321386 14.30425091 0.80321386 14.30425091 4 16 C5.65549531 16.38499891 7.3222433 16.72793135 9 17 C8.67 17.99 8.34 18.98 8 20 C3.730679 20.41856088 1.6696295 20.48038638 -1.875 17.9375 C-4.43175566 14.40316129 -5 12.35173775 -5 8 C-3.68446467 4.6798394 -2.5194066 2.5194066 0 0 Z " fill="#F3F3F3" transform="translate(1210,254)"/>
<path d="M0 0 C0.33 0.66 0.66 1.32 1 2 C11.89 2 22.78 2 34 2 C34 2.66 34 3.32 34 4 C22.12 4 10.24 4 -2 4 C-1.34 2.68 -0.68 1.36 0 0 Z " fill="#000000" transform="translate(243,170)"/>
<path d="M0 0 C-0.99 0.33 -1.98 0.66 -3 1 C1.95 1.33 6.9 1.66 12 2 C12 2.33 12 2.66 12 3 C-7.34042553 4.19148936 -7.34042553 4.19148936 -17 4 C-17 3.34 -17 2.68 -17 2 C-14.91952703 1.4678559 -12.83547707 0.94968214 -10.75 0.4375 C-9.58984375 0.14746094 -8.4296875 -0.14257812 -7.234375 -0.44140625 C-4.27909017 -0.95179964 -2.75565899 -1.02996165 0 0 Z " fill="#D4D4D4" transform="translate(1319,41)"/>
<path d="M0 0 C4.95 0 9.9 0 15 0 C15 0.99 15 1.98 15 3 C13.25008666 3.02715383 11.50005055 3.04646551 9.75 3.0625 C8.28820313 3.07990234 8.28820313 3.07990234 6.796875 3.09765625 C4.34241322 3.01195577 2.33831086 2.70706066 0 2 C0 1.34 0 0.68 0 0 Z " fill="#C7C7C7" transform="translate(1060,253)"/>
<path d="M0 0 C-0.66 0.66 -1.32 1.32 -2 2 C0.97 2.495 0.97 2.495 4 3 C4 3.33 4 3.66 4 4 C-1.61 4 -7.22 4 -13 4 C-13 3.34 -13 2.68 -13 2 C-4.57142857 -0.28571429 -4.57142857 -0.28571429 0 0 Z " fill="#CBCBCB" transform="translate(1407,18)"/>
<path d="M0 0 C1.95803507 -0.05389087 3.91648909 -0.09274217 5.875 -0.125 C7.51082031 -0.15980469 7.51082031 -0.15980469 9.1796875 -0.1953125 C12 0 12 0 14 2 C13.01 2 12.02 2 11 2 C11.33 2.99 11.66 3.98 12 5 C11.34 5 10.68 5 10 5 C10 4.01 10 3.02 10 2 C6.7 2 3.4 2 0 2 C0 1.34 0 0.68 0 0 Z " fill="#B1B1B1" transform="translate(1237,253)"/>
<path d="M0 0 C0.66 0 1.32 0 2 0 C1.43040847 3.62613199 0.07625466 5.25517741 -2.5625 7.75 C-3.52349609 8.67039062 -3.52349609 8.67039062 -4.50390625 9.609375 C-4.99761719 10.06828125 -5.49132812 10.5271875 -6 11 C-6.66 10.67 -7.32 10.34 -8 10 C-4.375 4.125 -4.375 4.125 -1 3 C-0.67 2.01 -0.34 1.02 0 0 Z " fill="#959595" transform="translate(508,106)"/>
<path d="M0 0 C1.32 0.66 2.64 1.32 4 2 C2.71186658 2.83878455 1.41936744 3.67086783 0.125 4.5 C-0.59429688 4.9640625 -1.31359375 5.428125 -2.0546875 5.90625 C-4 7 -4 7 -6 7 C-4.77065985 3.31197956 -3.06140622 2.27643027 0 0 Z " fill="#DFDFDF" transform="translate(1443,162)"/>
<path d="" fill="#000000" transform="translate(0,0)"/>
<path d="" fill="#000000" transform="translate(0,0)"/>
<path d="" fill="#000000" transform="translate(0,0)"/>
<path d="" fill="#000000" transform="translate(0,0)"/>
<path d="" fill="#000000" transform="translate(0,0)"/>
<path d="" fill="#000000" transform="translate(0,0)"/>
<path d="" fill="#000000" transform="translate(0,0)"/>
<path d="" fill="#000000" transform="translate(0,0)"/>
<path d="" fill="#000000" transform="translate(0,0)"/>
<path d="" fill="#000000" transform="translate(0,0)"/>
<path d="" fill="#000000" transform="translate(0,0)"/>
<path d="" fill="#000000" transform="translate(0,0)"/>
<path d="" fill="#000000" transform="translate(0,0)"/>
<path d="" fill="#000000" transform="translate(0,0)"/>
<path d="" fill="#000000" transform="translate(0,0)"/>
<path d="" fill="#000000" transform="translate(0,0)"/>
<path d="" fill="#000000" transform="translate(0,0)"/>
<path d="" fill="#000000" transform="translate(0,0)"/>
<path d="" fill="#000000" transform="translate(0,0)"/>
<path d="" fill="#000000" transform="translate(0,0)"/>
<path d="" fill="#000000" transform="translate(0,0)"/>
<path d="" fill="#000000" transform="translate(0,0)"/>
<path d="" fill="#000000" transform="translate(0,0)"/>
<path d="" fill="#000000" transform="translate(0,0)"/>
</svg>
