<?xml version="1.0" standalone="no"?>
<!DOCTYPE svg PUBLIC "-//W3C//DTD SVG 20010904//EN"
 "http://www.w3.org/TR/2001/REC-SVG-20010904/DTD/svg10.dtd">
<svg version="1.0" xmlns="http://www.w3.org/2000/svg"
 width="1361.000000pt" height="593.000000pt" viewBox="0 0 1361.000000 593.000000"
 preserveAspectRatio="xMidYMid meet">

<g transform="translate(0.000000,593.000000) scale(0.100000,-0.100000)"
fill="#000000" stroke="none">
<path d="M11730 5753 c-107 -4 -524 -41 -660 -59 -195 -25 -400 -55 -515 -75
-298 -51 -351 -61 -357 -67 -4 -4 190 -5 430 -3 569 4 837 -12 1132 -70 366
-72 644 -202 829 -387 131 -131 202 -255 243 -420 43 -173 23 -448 -46 -637
-13 -36 -20 -65 -15 -65 14 0 178 211 264 340 136 203 223 389 267 570 28 113
30 299 4 385 -110 368 -616 525 -1576 488z"/>
<path d="M9780 5305 c-330 -23 -618 -59 -945 -119 -244 -45 -507 -104 -520
-117 -7 -7 1 -9 25 -5 193 30 979 41 1240 17 673 -61 1106 -164 1518 -361 769
-369 985 -970 576 -1597 -31 -49 -83 -119 -114 -158 -102 -124 -354 -364 -463
-440 -11 -8 -18 -17 -16 -20 7 -6 347 222 504 339 354 263 626 530 796 782
196 290 238 567 129 840 -78 196 -261 390 -480 511 -250 137 -611 242 -1035
299 -319 43 -830 55 -1215 29z"/>
<path d="M5435 3778 c-121 -160 -281 -371 -355 -469 -74 -97 -271 -356 -436
-575 -166 -220 -397 -525 -514 -679 -388 -512 -530 -702 -530 -708 0 -4 150
-7 333 -7 l333 0 36 47 c19 27 124 165 232 308 l197 260 735 5 735 5 -178 235
c-98 130 -189 249 -201 265 l-24 30 -325 5 -325 5 163 215 c89 118 205 270
256 337 l94 123 48 -63 c26 -34 180 -237 342 -452 163 -214 369 -487 458 -605
90 -118 249 -329 354 -467 l191 -253 334 0 c276 0 333 2 329 13 -3 8 -105 146
-228 308 -122 162 -524 692 -893 1179 -369 487 -728 962 -799 1055 -70 94
-131 171 -135 172 -4 2 -106 -129 -227 -289z"/>
<path d="M400 3565 l0 -355 270 0 270 0 0 85 0 86 668 -3 c739 -3 691 1 761
-70 115 -115 84 -302 -63 -381 l-41 -22 -932 -3 -933 -2 0 -270 0 -270 1148 0
1147 0 51 -24 c195 -91 168 -379 -40 -441 -42 -13 -181 -15 -908 -15 l-858 0
0 90 0 90 -270 0 -270 0 0 -360 0 -361 1173 4 c1266 4 1212 1 1353 56 219 85
400 285 466 518 30 104 32 305 4 403 -65 226 -209 401 -413 504 -29 14 -53 29
-53 31 0 3 9 38 20 78 122 436 -157 887 -602 972 -68 13 -218 15 -1014 15
l-934 0 0 -355z"/>
<path d="M7220 3650 l0 -270 1605 0 1605 0 0 270 0 270 -1605 0 -1605 0 0
-270z"/>
<path d="M8560 2210 l0 -870 265 0 265 0 0 870 0 870 -265 0 -265 0 0 -870z"/>
<path d="M2136 869 c-71 -56 8 -167 90 -127 62 29 70 104 14 133 -40 21 -72
19 -104 -6z"/>
<path d="M3256 869 c-34 -26 -37 -86 -5 -115 33 -30 96 -25 125 9 27 31 29 45
13 80 -22 48 -89 61 -133 26z"/>
<path d="M8370 525 l0 -325 70 0 70 0 0 119 c0 65 3 132 6 150 13 64 81 101
145 79 48 -17 59 -55 59 -213 l0 -135 70 0 70 0 0 140 c0 76 -5 162 -11 190
-30 142 -171 185 -331 102 -5 -2 -8 46 -8 107 l0 111 -70 0 -70 0 0 -325z"/>
<path d="M420 505 l0 -305 225 0 225 0 0 55 0 55 -155 0 -155 0 0 250 0 250
-70 0 -70 0 0 -305z"/>
<path d="M4740 504 l0 -305 223 3 c214 3 224 4 264 27 46 26 83 86 83 134 0
44 -30 106 -64 129 -17 12 -32 22 -34 24 -2 1 8 14 22 29 81 87 37 221 -81
254 -21 6 -122 11 -225 11 l-188 0 0 -306z m353 185 c29 -16 37 -28 37 -60 0
-49 -31 -64 -141 -67 l-99 -4 0 71 0 71 91 0 c50 0 100 -5 112 -11z m47 -259
c11 -11 20 -33 20 -50 0 -17 -9 -39 -20 -50 -18 -18 -33 -20 -135 -20 l-115 0
0 70 0 70 115 0 c102 0 117 -2 135 -20z"/>
<path d="M2870 715 l0 -55 -35 0 -35 0 0 -55 0 -55 34 0 34 0 4 -127 c3 -105
7 -134 23 -161 37 -61 134 -87 228 -61 20 5 37 13 37 17 0 4 -8 28 -18 54 -14
37 -21 45 -32 38 -27 -17 -68 -11 -84 12 -12 17 -16 48 -16 125 l0 103 60 0
60 0 0 55 0 55 -60 0 -60 0 0 55 0 55 -70 0 -70 0 0 -55z"/>
<path d="M8010 715 l0 -55 -35 0 -35 0 0 -55 0 -55 34 0 34 0 4 -132 c3 -118
5 -136 25 -164 41 -58 152 -82 228 -50 l34 15 -17 46 c-17 46 -17 46 -55 39
-29 -4 -43 -2 -58 12 -17 15 -19 31 -19 125 l0 108 58 3 57 3 0 50 0 50 -57 3
-58 3 0 54 0 55 -70 0 -70 0 0 -55z"/>
<path d="M1080 664 c-101 -27 -166 -104 -177 -208 -14 -137 84 -250 228 -263
196 -18 330 134 279 318 -14 48 -71 113 -123 137 -59 29 -140 35 -207 16z
m146 -123 c38 -23 59 -77 51 -133 -10 -75 -81 -120 -152 -96 -129 43 -100 247
35 248 19 0 49 -9 66 -19z"/>
<path d="M1640 667 c-104 -29 -163 -110 -162 -221 1 -101 41 -164 132 -205 64
-29 143 -28 204 3 l48 24 -5 -35 c-4 -19 -13 -46 -22 -59 -31 -48 -154 -55
-236 -13 -21 10 -40 19 -43 19 -4 0 -56 -89 -56 -97 0 -2 26 -16 58 -31 51
-24 68 -27 167 -27 123 0 169 16 218 75 48 57 57 112 57 352 l0 218 -65 0
c-63 0 -65 -1 -65 -25 0 -25 -14 -33 -25 -15 -22 36 -135 56 -205 37z m192
-146 c77 -86 -13 -213 -130 -182 -56 15 -82 51 -82 111 0 43 4 52 37 80 33 30
40 32 91 28 47 -4 60 -10 84 -37z"/>
<path d="M2501 670 c-95 -20 -148 -85 -138 -169 8 -72 54 -100 211 -127 59
-11 80 -35 53 -61 -23 -24 -115 -21 -183 5 l-51 19 -22 -45 c-28 -56 -21 -65
69 -88 86 -22 190 -15 255 16 59 28 90 87 79 147 -12 66 -59 92 -217 123 -67
13 -82 33 -48 62 28 22 89 24 156 3 27 -8 50 -13 51 -12 1 1 11 22 24 46 18
35 19 45 8 52 -41 27 -179 43 -247 29z"/>
<path d="M3667 670 c-89 -22 -142 -65 -176 -140 -53 -115 -3 -253 113 -312 51
-26 140 -34 206 -18 53 13 130 72 130 101 0 8 -22 26 -50 40 l-49 26 -22 -23
c-48 -52 -141 -48 -181 7 -28 38 -34 99 -13 143 37 77 143 90 196 24 15 -20
16 -20 72 9 l57 28 -25 37 c-43 63 -165 100 -258 78z"/>
<path d="M4133 670 c-98 -20 -143 -65 -143 -145 0 -88 41 -121 178 -145 84
-14 112 -30 96 -56 -23 -38 -119 -37 -208 0 l-36 15 -20 -39 c-27 -52 -25 -65
8 -79 132 -52 299 -37 361 34 26 30 31 44 31 85 0 86 -51 123 -200 145 -59 9
-80 21 -80 46 0 38 97 52 175 24 22 -8 43 -15 46 -15 4 0 15 22 27 49 l20 49
-25 11 c-24 11 -143 31 -173 30 -8 -1 -34 -5 -57 -9z"/>
<path d="M5522 669 c-29 -5 -71 -18 -93 -29 l-40 -21 27 -47 27 -48 38 19 c43
21 134 26 166 9 12 -7 25 -25 31 -40 l10 -29 -94 -7 c-162 -11 -214 -46 -214
-142 0 -45 5 -59 31 -89 19 -21 46 -39 72 -46 59 -16 141 -7 177 19 36 27 40
27 40 2 0 -18 7 -20 66 -20 l67 0 -5 169 c-5 160 -6 171 -31 214 -44 74 -150
107 -275 86z m168 -294 c0 -27 -22 -63 -47 -76 -35 -19 -89 -16 -113 6 -24 22
-26 42 -3 67 21 24 163 27 163 3z"/>
<path d="M6702 669 c-23 -4 -56 -18 -72 -29 l-30 -21 0 25 c0 25 -2 26 -65 26
l-65 0 0 -235 0 -235 65 0 65 0 0 108 c1 179 24 229 114 239 l46 6 0 63 c0 35
-3 64 -7 63 -5 -1 -27 -5 -51 -10z"/>
<path d="M6978 667 c-58 -17 -110 -56 -146 -110 -24 -36 -27 -50 -27 -122 0
-73 3 -86 30 -130 21 -33 47 -57 85 -79 50 -28 63 -31 145 -31 75 0 98 4 138
24 27 13 51 30 54 38 4 9 -8 29 -29 49 l-34 35 -49 -22 c-77 -34 -166 -13
-193 46 l-11 25 177 2 177 3 -1 55 c-3 155 -157 261 -316 217z m132 -112 c28
-15 50 -42 50 -64 0 -7 -39 -11 -110 -11 -73 0 -110 4 -110 11 0 6 15 26 34
45 39 39 86 45 136 19z"/>
<path d="M2120 435 l0 -235 70 0 70 0 0 235 0 235 -70 0 -70 0 0 -235z"/>
<path d="M3240 435 l0 -235 70 0 70 0 0 235 0 235 -70 0 -70 0 0 -235z"/>
<path d="M5870 667 c0 -2 45 -108 100 -236 55 -128 100 -237 100 -242 0 -19
-49 -59 -72 -59 -13 0 -36 7 -52 15 -16 9 -30 14 -31 13 -2 -2 -12 -22 -24
-46 -26 -51 -19 -66 38 -82 86 -24 167 -4 215 52 30 34 67 117 253 556 l13 32
-68 0 -67 0 -64 -155 c-36 -85 -67 -152 -70 -149 -3 3 -33 71 -66 152 l-61
147 -72 3 c-40 2 -72 1 -72 -1z"/>
<path d="M7390 503 c1 -215 16 -257 113 -298 55 -23 125 -19 183 10 27 14 50
25 52 25 1 0 2 -9 2 -20 0 -18 7 -20 65 -20 l65 0 0 235 0 235 -69 0 -70 0 -3
-144 c-3 -127 -5 -148 -24 -172 -25 -34 -64 -48 -110 -40 -55 11 -64 40 -64
211 l0 145 -70 0 -70 0 0 -167z"/>
</g>
</svg>
