<?xml version="1.0" encoding="UTF-8" standalone="no"?>
<svg
   version="1.1"
   width="504.51361"
   height="128.96291"
   id="svg65"
   xmlns="http://www.w3.org/2000/svg"
   xmlns:svg="http://www.w3.org/2000/svg">
  <defs
     id="defs65" />
  <path
     d="m 248,3.6051865 c 26,0 26,0 31.73047,5.2460937 1.28474,2.4052698 2.38563,4.7032548 3.45703,7.1914058 0.64652,1.281904 1.30382,2.558419 1.97119,3.82959 1.35614,2.606539 2.66011,5.230165 3.92969,7.879883 2.86574,5.89458 6.34686,11.40373 9.78662,16.978027 1.22151,2.0322 2.44033,4.066017 3.65625,6.101562 3.26209,5.436204 6.54338,10.860395 9.84375,16.273438 0.45875,0.754263 0.91749,1.508525 1.39014,2.285645 1.87882,3.286318 1.87882,3.286318 4.23486,6.214355 0.31638,-0.5576 0.63277,-1.1152 0.95874,-1.689697 1.49106,-2.625331 2.98449,-5.2493 4.47876,-7.872803 0.81066,-1.423729 0.81066,-1.423729 1.63769,-2.876221 3.6766,-6.435122 7.42694,-12.817311 11.33277,-19.116211 1.9766,-3.000761 1.9766,-3.000761 2.59204,-6.445068 1,-1 2,-2 3,-3 0,-0.66 0,-1.32 0,-2 0.99578,-1.004199 1.99636,-2.003652 3,-3 0.99011,-1.730135 0.99011,-1.730135 1.8125,-3.625 1.85075,-3.863978 4.06696,-7.306491 6.52734,-10.808594 2.42137,-3.743141 4.52667,-7.6538695 6.66016,-11.5664055 4.14582,-0.028868 8.29161,-0.046753 12.4375,-0.0625 1.184,-0.00838 2.36801,-0.016758 3.58789,-0.025391 1.12471,-0.00322 2.24941,-0.00645 3.4082,-0.00977 1.04213,-0.00524 2.08426,-0.010474 3.15796,-0.015869 C 385,3.6051865 385,3.6051865 386,4.6051865 c 0.0981,1.5665546 0.12632,3.1375315 0.12698,4.7071533 0.003,1.0180422 0.006,2.0360842 0.009,3.0849762 -0.003,1.689409 -0.003,1.689409 -0.006,3.412948 0.003,1.768083 0.003,1.768083 0.005,3.571884 0.004,3.241654 0.003,6.483267 -3.7e-4,9.724921 -0.003,3.385481 -1.9e-4,6.77096 10e-4,10.156442 0.002,5.686325 -5.8e-4,11.372637 -0.005,17.05896 -0.005,6.582995 -0.004,13.165959 0.002,19.748954 0.005,5.642454 0.005,11.284899 0.003,16.927355 -0.002,3.374184 -0.002,6.748352 0.002,10.12254 0.003,3.75962 -10e-4,7.51918 -0.007,11.27879 0.002,1.12627 0.004,2.25255 0.006,3.41295 -0.003,1.01804 -0.006,2.03608 -0.009,3.08498 -5.6e-4,1.33511 -5.6e-4,1.33511 -10e-4,2.69719 C 386,125.60519 386,125.60519 385,126.60519 c -9.24,0 -18.48,0 -28,0 -0.33,-21.45 -0.66,-42.900004 -1,-65.000004 -4.33125,7.30125 -4.33125,7.30125 -8.75,14.75 -2.87915,4.791992 -2.87915,4.791992 -4.09947,6.821106 -3.3552,5.590942 -6.60133,11.171954 -9.52162,17.007018 -6.63362,13.02388 -6.63362,13.02388 -12.45704,15.36329 -3.70027,0.84603 -6.69376,0.67425 -10.23193,-0.71241 -6.57219,-4.16365 -9.93903,-12.58407 -13.37988,-19.264649 -2.46064,-4.675606 -5.23872,-9.148221 -7.99756,-13.651855 -0.9385,-1.565026 -1.87478,-3.13139 -2.80859,-4.699219 -2.91048,-4.875571 -5.83249,-9.744254 -8.75391,-14.613281 -0.33,21.12 -0.66,42.240004 -1,64.000004 -9.57,0 -19.14,0 -29,0 0,-40.590004 0,-81.180004 0,-123.0000035 z"
     fill="#f8f8f8"
     id="path2" />
  <path
     d="m 0,3.6051865 c 15.685313,-0.092812 15.685313,-0.092812 31.6875,-0.1875 4.912657,-0.040968 4.912657,-0.040968 9.924561,-0.082764 2.633215,-0.00877 5.266435,-0.016415 7.899658,-0.022705 0.997711,-0.01176 0.997711,-0.01176 2.015579,-0.023758 16.38495,-0.1831071 31.62885,2.493914 43.910202,14.0667265 9.7343,10.406168 12.19539,22.17966 11.87891,35.980469 -0.4533,8.533057 -3.58445,17.771083 -9.31641,24.269531 -1.319568,0.693515 -2.654328,1.358605 -4,2 -1.329419,1.083736 -2.640701,2.189935 -3.9375,3.3125 -12.882745,10.153888 -29.01602,10.947619 -44.75,11.3125 -4.723125,0.12375 -9.44625,0.2475 -14.3125,0.375 0,10.560004 0,21.120004 0,32.000004 -10.23,0 -20.46,0 -31,0 C 0,86.015186 0,45.425186 0,3.6051865 Z M 31,29.605186 c 0,12.54 0,25.08 0,38 6.1875,0.06188 6.1875,0.06188 12.5,0.125 1.284551,0.01821 2.569102,0.03642 3.892578,0.05518 C 57.769487,67.835406 65.955082,66.684714 74,59.605186 76.712497,54.614192 76.705288,49.016216 75.570312,43.527061 73.890567,38.093811 70.848683,34.56147 66,31.605186 61.539993,29.84205 57.852683,29.367552 53.070312,29.409873 c -1.743859,0.0075 -1.743859,0.0075 -3.522949,0.01514 -2.18907,0.02731 -2.18907,0.02731 -4.422363,0.05518 -6.991875,0.06187 -6.991875,0.06187 -14.125,0.124993 z"
     fill="#f9f9f9"
     id="path4" />
  <path
     d="m 155,3.6051865 c 9.9,0 19.8,0 30,0 5.20605,10.1579715 9.93054,20.4496475 14.47638,30.9178765 1.97915,4.556861 3.97093,9.108202 5.96112,13.660248 0.39434,0.902772 0.78868,1.805544 1.19498,2.735672 3.28718,7.519527 6.62532,15.014676 9.99252,22.498703 0.49854,1.111736 0.99709,2.223472 1.51074,3.368896 2.69085,5.997967 5.39467,11.989696 8.11283,17.975327 1.51129,3.333496 3.01447,6.670621 4.51626,10.008411 0.73574,1.63021 1.475,3.25884 2.2179,4.8858 1.03292,2.26297 2.05371,4.53104 3.07196,6.80063 0.31382,0.67981 0.62765,1.35961 0.95099,2.06002 2.10825,4.74662 2.10825,4.74662 0.99432,8.08842 -10.23,0 -20.46,0 -31,0 -2.62659,-5.25318 -5.08763,-10.379 -7.25,-15.8125 -0.26813,-0.6542 -0.53625,-1.3084 -0.8125,-1.98242 C 197.77853,105.9158 197,103.7534 197,100.60519 c -17.82,0.33 -35.64,0.66 -54,1 -0.99,2.97 -1.98,5.94 -3,9 -1.01994,2.67923 -2.05237,5.34269 -3.125,8 -0.26426,0.66645 -0.52852,1.33289 -0.80078,2.01953 -1.94739,4.85364 -1.94739,4.85364 -3.07422,5.98047 -2.29151,0.0879 -4.58573,0.10694 -6.87891,0.0977 -1.02999,-0.002 -1.02999,-0.002 -2.08079,-0.004 -2.20098,-0.006 -4.40185,-0.0182 -6.6028,-0.0309 -1.48893,-0.005 -2.97786,-0.01 -4.4668,-0.0137 -3.65693,-0.011 -7.31381,-0.0283 -10.9707,-0.0488 0.67382,-4.68239 2.49369,-8.7659 4.40234,-13.05078 0.34904,-0.79391 0.69807,-1.58782 1.05768,-2.40579 1.15409,-2.62092 2.31562,-5.23845 3.47748,-7.85593 0.81383,-1.84306 1.62739,-3.686244 2.44067,-5.529545 6.27896,-14.210856 12.64977,-28.380255 19.04126,-42.540772 5.09417,-11.289824 10.14106,-22.599324 15.14307,-33.929987 0.32423,-0.733225 0.64846,-1.46645 0.98251,-2.221893 0.90455,-2.046437 1.80712,-4.093728 2.7089,-6.141388 0.50861,-1.154114 1.01723,-2.308227 1.54126,-3.4973142 C 154.04468,6.6062155 154.04468,6.6062155 155,3.6051865 Z m 14,31.9999995 c -0.14478,0.547852 -0.28956,1.095703 -0.43872,1.660156 -2.26149,8.053939 -5.48722,15.656042 -8.74878,23.339844 -0.83826,1.979774 -1.67498,3.960144 -2.5074,5.942383 -0.74659,1.777315 -1.49871,3.552299 -2.25114,5.327148 -1.17399,2.553636 -1.17399,2.553636 -1.05396,4.730469 10.56,0 21.12,0 32,0 -1.91133,-5.734 -3.84501,-11.308843 -6.13672,-16.878906 -0.2843,-0.697539 -0.56861,-1.395078 -0.86153,-2.113755 -0.89373,-2.191052 -1.79141,-4.380464 -2.68925,-6.569839 -0.61289,-1.500544 -1.22553,-3.001194 -1.83789,-4.501953 -1.48853,-3.64642 -2.98059,-7.291376 -4.47461,-10.935547 -0.33,0 -0.66,0 -1,0 z"
     fill="#f8f8f8"
     id="path5" />
  <path
     d="m 497.36719,11.261436 c 0.53883,0.443438 1.07766,0.886875 1.63281,1.34375 -0.62977,5.336077 -2.34316,9.888238 -4.375,14.8125 -0.30422,0.775371 -0.60843,1.550742 -0.92187,2.349609 -0.30164,0.7367 -0.60328,1.473399 -0.91406,2.232422 -0.27119,0.668782 -0.54238,1.337564 -0.82178,2.026612 C 491,35.605186 491,35.605186 488,36.605186 c -2.34765,-0.890625 -2.34765,-0.890625 -5.0625,-2.25 -12.84454,-6.108371 -28.06557,-9.675949 -41.9375,-4.75 -2.65717,1.727162 -3.66662,2.867001 -4.55859,5.898437 -0.58816,3.262164 -0.91334,5.183249 0.64062,8.207032 2.62745,2.595335 4.99657,3.18044 8.54297,4.207031 0.68079,0.202383 1.36158,0.404766 2.06299,0.613281 4.50765,1.324214 9.04275,2.546439 13.57764,3.773438 1.09103,0.298015 2.18206,0.59603 3.30615,0.903076 2.15364,0.585287 4.31014,1.160187 6.46973,1.723144 11.26133,3.041938 22.77205,7.651342 29.37256,17.862061 4.37849,8.567997 5.10567,18.560305 2.83203,27.914064 -1.74733,4.5362 -3.83474,8.38961 -7.2461,11.89844 -0.43441,0.45633 -0.86883,0.91266 -1.3164,1.38281 -12.3313,11.80591 -29.35753,15.13617 -45.84619,14.969 -15.93006,-0.49071 -34.37449,-3.75833 -46.83741,-14.35181 0.6722,-4.76141 2.53272,-8.7875 4.5,-13.125 2.43265,-5.363782 2.43265,-5.363782 4.5,-10.875004 4.39082,0.606195 7.6243,2.268252 11.5,4.375 13.5758,6.992574 28.97675,8.671764 44,5.812504 3.72737,-0.868041 3.72737,-0.868041 5.5,-4.187504 0.6636,-4.105919 0.6636,-4.105919 0,-8 -4.09115,-4.166102 -7.91133,-5.993694 -13.5625,-7.4375 -1.08897,-0.301761 -1.08897,-0.301761 -2.19995,-0.609619 C 453.82888,79.891969 451.41525,79.247 449,78.605186 c -32.90439,-8.790693 -32.90439,-8.790693 -41,-20 -4.62302,-8.4055 -5.55797,-17.776039 -3.23437,-27.058594 2.23283,-6.530142 5.06546,-12.242393 10.23437,-16.941406 1.13689,-1.136886 2.26286,-2.285645 3.35157,-3.46875 17.90627,-16.6333145 60.27554,-12.9868705 79.01562,0.125 z"
     fill="#fbfbfb"
     id="path6" />
  <path
     d="m 155,3.6051865 c 9.9,0 19.8,0 30,0 5.20605,10.1579715 9.93054,20.4496475 14.47638,30.9178765 1.97915,4.556861 3.97093,9.108202 5.96112,13.660248 0.39434,0.902772 0.78868,1.805544 1.19498,2.735672 3.28718,7.519527 6.62532,15.014676 9.99252,22.498703 0.49854,1.111736 0.99709,2.223472 1.51074,3.368896 2.69085,5.997967 5.39467,11.989696 8.11283,17.975327 1.51129,3.333496 3.01447,6.670621 4.51626,10.008411 0.73574,1.63021 1.475,3.25884 2.2179,4.8858 1.03292,2.26297 2.05371,4.53104 3.07196,6.80063 0.31382,0.67981 0.62765,1.35961 0.95099,2.06002 2.10825,4.74662 2.10825,4.74662 0.99432,8.08842 -2.5038,-2.50379 -3.60084,-5.29274 -4.99219,-8.48828 -0.29762,-0.67319 -0.59524,-1.34638 -0.90188,-2.03996 -0.99789,-2.25958 -1.98929,-4.52194 -2.98093,-6.78426 -0.70913,-1.6083 -1.41877,-3.21637 -2.12891,-4.82422 -1.5288,-3.46227 -3.0555,-6.925461 -4.58105,-10.389163 -3.69548,-8.383871 -7.42322,-16.753413 -11.14765,-25.124451 -1.26668,-2.848067 -2.53214,-5.696674 -3.79718,-8.545471 -3.6972,-8.325134 -7.39744,-16.648815 -11.11926,-24.962982 -1.51323,-3.380715 -3.02396,-6.762543 -4.53454,-10.14444 -0.70634,-1.579218 -1.414,-3.157841 -2.12305,-4.73584 -0.96877,-2.156106 -1.93311,-4.314137 -2.89649,-6.472656 -0.28643,-0.634153 -0.57286,-1.268306 -0.86798,-1.921676 C 184,7.8329151 184,7.8329151 184,5.6051865 c -9.9,0 -19.8,0 -30,0 0.33,-0.66 0.66,-1.32 1,-2 z"
     fill="#070707"
     id="path11" />
  <path
     d="m 0,3.6051865 c 8.2503956,-0.069976 16.500664,-0.1230498 24.751285,-0.1554366 3.832443,-0.015556 7.664681,-0.036606 11.497006,-0.070882 3.708845,-0.032958 7.417494,-0.05061 11.126474,-0.058313 1.404368,-0.00548 2.808727,-0.016175 4.213009,-0.032558 16.362379,-0.1830451 31.588034,2.5129033 43.849726,14.0671901 8.36112,8.938208 11.95996,19.375099 11.9375,31.5 0.001,0.731462 0.003,1.462925 0.004,2.216553 -0.12803,6.647541 -1.74336,12.426772 -4.379,18.533447 -0.66,-0.66 -1.32,-1.32 -2,-2 0.21076,-0.542373 0.42152,-1.084746 0.63867,-1.643555 4.24863,-11.66123 4.17646,-25.09744 -0.95898,-36.485352 C 93.393883,17.022637 83.504275,11.40501 70,7.6051865 66.111603,6.6848126 62.458334,6.4541347 58.465576,6.3998642 57.164605,6.379919 55.863634,6.3599738 54.523239,6.3394242 53.11315,6.3224436 51.70306,6.3055647 50.292969,6.2887803 48.842793,6.2681928 47.392623,6.2471958 45.942459,6.2258072 42.136736,6.170772 38.33096,6.1212814 34.525146,6.0729599 30.63716,6.022609 26.749249,5.9669941 22.861328,5.9118271 15.24095,5.8044726 7.6205079,5.7029778 0,5.6051865 c 0,-0.66 0,-1.32 0,-2 z"
     fill="#080808"
     id="path12" />
  <path
     d="m 360,3.6051865 c 4.14582,-0.028868 8.29161,-0.046753 12.4375,-0.0625 1.77601,-0.012568 1.77601,-0.012568 3.58789,-0.025391 1.12471,-0.00322 2.24942,-0.00645 3.4082,-0.00977 1.04213,-0.00524 2.08426,-0.010474 3.15796,-0.015869 C 385,3.6051865 385,3.6051865 386,4.6051865 c 0.0959,1.5688764 0.12188,3.1420779 0.12025,4.7138824 10e-4,1.0194871 0.003,2.0389751 0.004,3.0893551 -0.004,1.127844 -0.007,2.255688 -0.0109,3.417709 1.4e-4,1.180328 2.9e-4,2.360656 4.4e-4,3.576752 -5.8e-4,3.245722 -0.006,6.491402 -0.0126,9.737115 -0.006,3.388616 -0.007,6.777233 -0.008,10.165854 -0.003,6.42089 -0.0113,12.841763 -0.0213,19.262645 -0.0112,7.308225 -0.0167,14.616451 -0.0217,21.924683 -0.0105,15.037344 -0.0281,30.074678 -0.0504,45.112008 -0.99,0.495 -0.99,0.495 -2,1 0,-39.930004 0,-79.860004 0,-121.0000035 -12.375,0.495 -12.375,0.495 -25,1 0.33,-0.99 0.66,-1.98 1,-3 z"
     fill="#030303"
     id="path13" />
  <path
     d="m 248,3.6051865 c 8.60164,-1.8054413 17.58444,-3.11026064 26,0 7.15147,6.3094238 11.02466,15.6930305 15.09277,24.1557615 2.84264,5.847257 6.30533,11.318697 9.71973,16.844238 1.21943,2.027976 2.43564,4.057895 3.64844,6.089844 3.4884,5.826494 6.98195,11.649883 10.47656,17.472656 0.9883,1.647122 1.97659,3.294256 2.96484,4.941406 0.40727,0.678772 0.81453,1.357544 1.23414,2.056885 0.28496,0.474939 0.56992,0.949878 0.86352,1.439209 -0.66,0.66 -1.32,1.32 -2,2 -7.4139,-11.681489 -14.49381,-23.541971 -21.50732,-35.467285 -2.0251,-3.436099 -4.06592,-6.862486 -6.11768,-10.282715 -0.34418,-0.5746 -0.68836,-1.149199 -1.04297,-1.741211 -2.08424,-3.467951 -4.1984,-6.916226 -6.32812,-10.356445 -0.50902,-0.824678 -1.01804,-1.649356 -1.54248,-2.499024 -0.99897,-1.616391 -2.00177,-3.230419 -3.00879,-4.841796 -0.44972,-0.727998 -0.89945,-1.455996 -1.3628,-2.206055 -0.40355,-0.648157 -0.80711,-1.2963132 -1.2229,-1.9641111 C 273,7.6051865 273,7.6051865 273,5.6051865 c -8.25,0 -16.5,0 -25,0 0,-0.66 0,-1.32 0,-2 z"
     fill="#0b0b0b"
     id="path17" />
  <path
     d="m 435,32.605186 c 0.66,0.33 1.32,0.66 2,1 -0.35807,1.953125 -0.71615,3.90625 -1.07422,5.859375 0.10467,3.018924 0.91395,4.041452 3.07422,6.140625 2.99976,1.343363 2.99976,1.343363 6.625,2.3125 0.68079,0.202383 1.36157,0.404766 2.06299,0.613281 4.50765,1.324214 9.04274,2.546439 13.57763,3.773438 1.09103,0.298015 2.18207,0.59603 3.30616,0.903076 2.15364,0.585287 4.31014,1.160187 6.46972,1.723144 11.26134,3.041938 22.77206,7.651342 29.37256,17.862061 4.38301,8.576821 5.16367,18.673544 2.76172,28.019534 -1.37258,3.48504 -2.51386,6.13105 -5.17578,8.79297 0.4737,-2.68429 1.04178,-5.11002 2.01172,-7.66407 C 502.36535,93.996458 502.48737,83.612483 499,75.980186 491.08591,62.995785 476.86227,59.542407 462.9375,56.042686 439.47976,50.084945 439.47976,50.084945 434,44.605186 c -1.38994,-2.779881 -1.18488,-4.918632 -1,-8 1,-2.375 1,-2.375 2,-4 z"
     fill="#020202"
     id="path18" />
  <path
     d="m 497.36719,11.261436 c 0.53883,0.443438 1.07766,0.886875 1.63281,1.34375 -0.61303,5.405081 -2.4438,9.92439 -4.5625,14.875 -0.32935,0.78375 -0.65871,1.5675 -0.99804,2.375 -0.80743,1.919088 -1.62266,3.834886 -2.43946,5.75 -0.66,-0.66 -1.32,-1.32 -2,-2 2.64,-6.6 5.28,-13.2 8,-20 -3.88234,-1.552937 -7.76332,-3.058644 -11.6875,-4.4999995 -1.70736,-0.6342188 -1.70736,-0.6342188 -3.44922,-1.28125 -8.85691,-2.9503649 -17.445,-3.5584233 -26.73828,-3.53125 -1.09441,-0.016113 -2.18883,-0.032227 -3.3164,-0.048828 -9.06333,-0.00536 -17.57576,1.3346339 -25.8711,5.1113281 C 423,10.605187 423,10.605187 420,9.6051866 441.37507,-2.6022415 476.60644,-3.2642395 497.36719,11.261436 Z"
     fill="#050505"
     id="path27" />
  <path
     d="m 29,29.605186 c 0.66,0 1.32,0 2,0 0,12.54 0,25.08 0,38 4.08375,-0.12375 8.1675,-0.2475 12.375,-0.375 1.266343,-0.034 2.532686,-0.068 3.837402,-0.103027 C 53.998163,66.892728 60.398005,66.210873 67,64.605186 c 0,0.66 0,1.32 0,2 -5.787994,2.553527 -11.204465,3.127598 -17.492188,3.097656 -1.081362,-0.0025 -2.162724,-0.005 -3.276855,-0.0076 -2.032449,-0.01362 -2.032449,-0.01362 -4.105957,-0.02756 -4.33125,-0.02063 -8.6625,-0.04125 -13.125,-0.0625 0,-13.2 0,-26.4 0,-40 z"
     fill="#090909"
     id="path29" />
  <path
     d="m 411,90.605186 c 4.39082,0.606196 7.6243,2.268253 11.5,4.375 13.78551,7.100584 29.29601,8.612794 44.5,5.625004 0,0.66 0,1.32 0,2 -16.14951,5.376 -32.836,1.69975 -47.75,-5.562504 -5.95754,-2.998804 -5.95754,-2.998804 -8.25,-6.4375 z"
     fill="#030303"
     id="path33" />
  <path
     d="m 153,74.605186 c 0.33,0.66 0.66,1.32 1,2 10.89,0 21.78,0 33,0 0,0.66 0,1.32 0,2 -11.88,0 -23.76,0 -36,0 0.66,-1.32 1.32,-2.64 2,-4 z"
     fill="#000000"
     id="path35" />
</svg>
